<svg xmlns="http://www.w3.org/2000/svg" width="33" height="33" viewBox="0 0 33 33"><defs><style>.a{fill:#ada8a8;}.b{fill:none;}</style></defs><circle class="a" cx="2" cy="2" r="2" transform="translate(21 23)"/><path class="a" d="M30.27,23.65A8.91,8.91,0,0,0,22.25,18a8.91,8.91,0,0,0-8.02,5.65l-.23.538.23.538a8.91,8.91,0,0,0,8.02,5.65,8.91,8.91,0,0,0,8.02-5.65l.23-.538Zm-8.02,4.663a4.125,4.125,0,1,1,4.125-4.125,4.125,4.125,0,0,1-4.125,4.125Z" transform="translate(0.438 0.563)"/><circle class="a" cx="1" cy="1" r="1" transform="translate(7 7)"/><ellipse class="a" cx="1" cy="1.5" rx="1" ry="1.5" transform="translate(7 15)"/><circle class="a" cx="1" cy="1" r="1" transform="translate(7 24)"/><path class="a" d="M5.063,21.563h7.219V19.5H5.063V13.313h16.5v3.094h2.063V5.063A2.063,2.063,0,0,0,21.563,3H5.063A2.063,2.063,0,0,0,3,5.063V27.75a2.063,2.063,0,0,0,2.062,2.063h7.219V27.75H5.063Zm0-16.5h16.5V11.25H5.063Z" transform="translate(0.094 0.094)"/><rect class="b" width="33" height="33"/></svg>