<svg xmlns="http://www.w3.org/2000/svg" width="33" height="33" viewBox="0 0 33 33"><defs><style>.a{fill:#ada8a8;}.b{fill:none;}</style></defs><circle class="a" cx="1" cy="1" r="1" transform="translate(7 7)"/><circle class="a" cx="1" cy="1" r="1" transform="translate(7 16)"/><circle class="a" cx="1" cy="1" r="1" transform="translate(7 24)"/><path class="a" d="M5.063,21.563h7.219V19.5H5.063V13.313h16.5v1.094h2.063V5.063A2.063,2.063,0,0,0,21.563,3H5.063A2.063,2.063,0,0,0,3,5.063V27.75a2.063,2.063,0,0,0,2.062,2.063h7.219V27.75H5.063Zm0-16.5h16.5V11.25H5.063Z" transform="translate(0.094 0.094)"/><rect class="b" width="33" height="33"/><g transform="translate(9.156 11.957)"><rect class="a" width="1.147" height="8.326" transform="translate(9.542 9.094)"/><rect class="a" width="1.147" height="8.326" transform="translate(12.072 9.094)"/><path class="a" d="M4,6V7.115H5.2V18.268a1.161,1.161,0,0,0,1.2,1.115h9.621a1.161,1.161,0,0,0,1.2-1.115V7.115h1.2V6ZM6.405,18.268V7.115h9.621V18.268Z" transform="translate(0.25 0.566)"/><rect class="a" width="8.826" height="1.796" transform="translate(7.053 3)"/></g></svg>