<svg xmlns="http://www.w3.org/2000/svg" width="70.606" height="57.167" viewBox="0 0 70.606 57.167"><defs><style><style>
                                .a {
                                    opacity: 0.4;
                                }

                                .b {
                                    fill: #fff;
                                }
                            </style></style></defs><g class="a" transform="translate(-0.498 -7.94)"><path class="b" d="M64.151,31.168l-7.119-16.61a2.369,2.369,0,0,0-2.18-1.439H47.733V8.373A2.373,2.373,0,0,0,45.36,6h-14.6v4.746h12.23V40.541a9.474,9.474,0,0,0-4.409,5.8H23.667a9.492,9.492,0,1,0,0,4.746H38.579a9.446,9.446,0,0,0,18.309,0h5.083a2.373,2.373,0,0,0,2.373-2.373V32.1a2.364,2.364,0,0,0-.192-.934ZM14.512,53.458a4.746,4.746,0,1,1,4.746-4.746,4.746,4.746,0,0,1-4.746,4.746ZM47.733,17.865h5.555l5.085,11.865H47.733Zm0,35.594a4.746,4.746,0,1,1,4.746-4.746,4.746,4.746,0,0,1-4.746,4.746ZM59.6,46.34h-2.71a9.481,9.481,0,0,0-9.155-7.119V34.475H59.6Z" transform="translate(6.76 6.902)"/><g transform="translate(0.498 7.94)"><path class="b" d="M32.419,20V18.137l2.343-2.05a2.441,2.441,0,0,0,.464-3.112l-2.88-4.882a2.463,2.463,0,0,0-2.892-1.1L26.488,8a13.852,13.852,0,0,0-1.6-.915L24.267,4A2.441,2.441,0,0,0,21.826,2.04H16.115A2.441,2.441,0,0,0,13.674,4L13.051,7.08A14.01,14.01,0,0,0,11.44,8l-2.9-1.05a2.441,2.441,0,0,0-.781-.073,2.441,2.441,0,0,0-2.111,1.22l-2.88,4.882a2.441,2.441,0,0,0,.5,3.063L5.57,18.15v1.867l-2.307,2.05a2.441,2.441,0,0,0-.5,3.112l2.88,4.882a2.463,2.463,0,0,0,2.892,1.1l2.966-1a13.852,13.852,0,0,0,1.6.915l.622,3.075a2.441,2.441,0,0,0,2.441,1.965h5.76a2.441,2.441,0,0,0,2.441-1.965l.622-3.075a14.01,14.01,0,0,0,1.611-.915l2.953,1a2.463,2.463,0,0,0,2.892-1.1l2.783-4.882a2.441,2.441,0,0,0-.5-3.063ZM30.235,28.84l-4.186-1.416a10.813,10.813,0,0,1-3.307,1.916l-.866,4.381h-5.76l-.866-4.332a11.423,11.423,0,0,1-3.3-1.916l-4.2,1.367-2.88-4.882,3.32-2.929a10.862,10.862,0,0,1,0-3.82L4.875,14.2l2.88-4.882,4.186,1.416a10.813,10.813,0,0,1,3.307-1.916l.866-4.381h5.76l.866,4.332a11.423,11.423,0,0,1,3.3,1.916l4.2-1.367,2.88,4.882L29.8,17.124a10.862,10.862,0,0,1,0,3.82l3.32,3.014Z" transform="translate(-2.413 -2.04)"/><path class="b" d="M17.322,24.645a7.322,7.322,0,1,1,7.322-7.322,7.249,7.249,0,0,1-7.322,7.322Zm0-12.2a4.772,4.772,0,0,0-4.882,4.882A4.772,4.772,0,0,0,17.322,22.2,4.772,4.772,0,0,0,22.2,17.322a4.772,4.772,0,0,0-4.882-4.882Z" transform="translate(-0.74 -0.285)"/></g></g></svg>
