<svg xmlns="http://www.w3.org/2000/svg" width="32" height="32" viewBox="0 0 32 32"><defs><style>.a{fill:#4589ff;}.b{fill:#fff;}.c{fill:none;}</style></defs><g transform="translate(-482 -72)"><circle class="a" cx="16" cy="16" r="16" transform="translate(482 72)"/><g transform="translate(487.969 77.969)"><path class="b" d="M18.121,15.021v2.223l-3.1-3.1V10.061a.62.62,0,0,0-.343-.555L11.3,7.817V4.374l1.6,1.6.877-.877L10.681,2,7.58,5.1l.877.877,1.6-1.6V7.817L6.683,9.506a.62.62,0,0,0-.343.555v4.084l-3.1,3.1V15.021H2v4.34H6.34v-1.24H4.117l2.966-2.966,3.321,1.66a.621.621,0,0,0,.555,0l3.321-1.66,2.966,2.966H15.021v1.24h4.34v-4.34Zm-8.061.237-2.48-1.24V11.064l2.48,1.24Zm.62-4.03L8.347,10.061l2.334-1.167,2.334,1.167Zm3.1,2.79-2.48,1.24V12.3l2.48-1.24Z" transform="translate(-0.748 -0.748)"/><rect class="c" width="19" height="19" transform="translate(0.031 0.031)"/></g></g></svg>