<svg xmlns="http://www.w3.org/2000/svg" width="32" height="32" viewBox="0 0 32 32"><defs><style>.a{fill:#ada8a8;}.b{fill:none;}</style></defs><g transform="translate(-25 -87)"><g transform="translate(35 100)"><path class="a" d="M17.624,10.532,14.494,8.966V5.3a.575.575,0,0,0-.318-.514L10.728,3.061a.575.575,0,0,0-.514,0L6.766,4.785a.575.575,0,0,0-.318.514V8.966L3.318,10.532A.575.575,0,0,0,3,11.046v4.023a.575.575,0,0,0,.318.514l3.448,1.724a.575.575,0,0,0,.514,0l3.191-1.6,3.191,1.6a.575.575,0,0,0,.514,0l3.448-1.724a.575.575,0,0,0,.318-.514V11.046a.575.575,0,0,0-.318-.514Zm-4.28-1.565-2.3,1.149V7.378l2.3-1.149ZM10.471,4.217,12.634,5.3,10.471,6.38,8.308,5.3ZM7.6,6.229,9.9,7.378v2.738L7.6,8.966ZM6.448,15.863l-2.3-1.149V11.976l2.3,1.149Zm.575-3.736L4.86,11.046,7.023,9.964l2.163,1.081Zm.575,1,2.3-1.149v2.738L7.6,15.863Zm5.747,2.738-2.3-1.149V11.976l2.3,1.149Zm.575-3.736-2.163-1.081,2.163-1.081,2.163,1.081Zm2.873,2.586-2.3,1.149V13.125l2.3-1.149Z"/></g><g transform="translate(25 87)"><path class="a" d="M5,8H25.17L21.59,4.41,23,3l6,6-6,6-1.41-1.41L25.17,10H5V26h6c.026,1.879-.012.094,0,2H5a2,2,0,0,1-2-2V10A2,2,0,0,1,5,8Z"/><rect class="b" width="32" height="32"/></g></g></svg>