<svg xmlns="http://www.w3.org/2000/svg" width="65" height="65" viewBox="0 0 65 65"><defs><style>.a{opacity:0.4;}.b{fill:#fff;}</style></defs><g class="a" transform="translate(-26.833 -220.667)"><path class="b" d="M38.093,15.16H35.707V12.773A4.773,4.773,0,0,0,30.933,8H21.387v4.773h9.547v7.16h7.16v14.32h-7.16v7.16H19v4.773H30.933a4.773,4.773,0,0,0,4.773-4.773V39.027h2.387a4.773,4.773,0,0,0,4.773-4.773V19.933A4.773,4.773,0,0,0,38.093,15.16Z" transform="translate(43.633 212.667)"/><path class="b" d="M20.707,41.413H8.773V12.773h14.32V8H8.773A4.773,4.773,0,0,0,4,12.773v28.64a4.773,4.773,0,0,0,4.773,4.773H20.707Z" transform="translate(22.833 212.667)"/><path class="b" d="M22.353,44.657l-3.866-2.769,9.236-12.936H9.37L25.719,8.38l3.723,2.959L19.251,24.18H36.984Z" transform="translate(30.28 213.193)"/></g></svg>