<svg xmlns="http://www.w3.org/2000/svg" width="510.268" height="494.047" viewBox="0 0 510.268 494.047"><defs><style>.a{opacity:0.9;}.av,.b,.bc{opacity:0.7;}.an,.av,.c,.q{fill:#d9e9ff;}.d{fill:#4334c2;}.e{fill:#6a5ce6;}.f{fill:#4852db;}.ao,.g{fill:#2c1f9c;}.h{fill:#c280ff;}.aw,.i,.l{fill:#a8c4e5;}.ae,.bb,.i{opacity:0.4;}.ae,.ao,.aw,.i{mix-blend-mode:multiply;isolation:isolate;}.j{fill:#ffc2b0;}.k{fill:#f09a82;}.m{fill:#e1eaf4;}.n{fill:#fff;}.o{fill:#5445d9;}.p{fill:#8932d9;}.at,.q{opacity:0.2;}.r{fill:#edf7ff;}.s{fill:#cedff5;}.t{fill:#bad4f5;}.u{fill:#3b2ad1;}.v{fill:#9ec2ff;}.w{fill:#c9d5f5;}.x{fill:#94a6eb;}.y{fill:#ebf1f7;}.z{fill:#a8c9ed;}.aa{fill:#2964d6;}.ab{fill:#4a3eb5;}.ac{fill:#e6f0ff;}.ad{fill:#6899e3;}.ae{fill:#91b3db;}.af{fill:#8babe0;}.ag{fill:#e655be;}.ah{fill:#add0ff;}.ai{fill:#4a39e3;}.aj{fill:#6c5dfa;}.ak{fill:#3629a6;}.al{fill:#f26fce;}.am,.aq,.az,.ba{fill:none;stroke:#fff;}.am{stroke-miterlimit:10;stroke-width:7.828px;}.an,.au{opacity:0.3;}.ao{opacity:0.22;}.ap{fill:#c6d2f2;}.aq,.az,.ba{stroke-linecap:round;stroke-linejoin:round;}.aq{stroke-width:4.281px;}.ar{fill:#21ded5;}.as{fill:#bf379a;}.at,.au,.bb,.bc{fill:#dbefff;}.aw{opacity:0.29;}.ax{fill:#e6b929;}.ay{fill:#fdd76a;}.az{stroke-width:15.837px;}.ba{stroke-width:0.931px;}</style></defs><g class="a" transform="translate(-628.588 -144.953)"><g class="b" transform="translate(479.588 182.953)"><path class="c" d="M781.675,664.894h0c-2.187-1.263-.654-3.412,2.429-3.407h0c3.49.006,6.311-1.622,6.3-3.637l-.006-1.038c-.011-2.015-2.849-3.654-6.34-3.66h0c-3.083-.006-4.639-2.161-2.466-3.416h0c2.46-1.42,2.448-3.731-.028-5.16l-1.274-.736a9.876,9.876,0,0,0-8.938-.016h0c-2.174,1.255-5.906.356-5.915-1.424h0c-.011-2.016-2.85-3.654-6.341-3.661l-1.8,0c-3.49-.006-6.311,1.622-6.3,3.637h0c.009,1.78-3.714,2.665-5.9,1.4h0a9.877,9.877,0,0,0-8.938-.016l-1.266.731c-2.46,1.42-2.447,3.731.028,5.16,2.187,1.263.655,3.412-2.429,3.407h0c-3.49-.006-6.311,1.622-6.3,3.637l.006,1.037c.011,2.015,2.85,3.654,6.34,3.66h0c3.083.006,4.639,2.161,2.465,3.416h0c-2.46,1.42-2.448,3.731.028,5.16l1.274.736a9.879,9.879,0,0,0,8.938.016c2.174-1.255,5.906-.356,5.915,1.424.011,2.015,2.849,3.654,6.34,3.66l1.8,0c3.49.006,6.311-1.623,6.3-3.638h0c-.009-1.78,3.714-2.665,5.9-1.4h0a9.878,9.878,0,0,0,8.938.016l1.266-.731C784.163,668.634,784.151,666.323,781.675,664.894Zm-34.432-1.238c-6.145-3.547-6.176-9.281-.07-12.807s16.037-3.507,22.182.04,6.175,9.281.069,12.807S753.387,667.2,747.243,663.657Z" transform="translate(-495.62 -372.06)"/><path class="d" d="M779.735,635.564l.006-8.586-4.978-.79-2.141-1.026a3.7,3.7,0,0,0-1.719-1.826l-1.274-.736a6.889,6.889,0,0,0-.867-.415l3.8-.175.2-5.764-16.578-1.955-1.6-3.847-14.21.434,1.991,3.723c-3.7.276-8.457.636-8.457.636l-.776.995c-1.526-.1-10.677-.773-10.677-.773v7.486l3.346-.585c-.1.052-.207.1-.305.16l-1.266.731a3.569,3.569,0,0,0-1.731,1.9l-6.971.457v9.339l.062.015a2.139,2.139,0,0,0-.062.492l.006,1.037c.01,2.015,2.849,3.654,6.34,3.66h0c.208,0,.408.012.6.03l.03,5.883h0a3.117,3.117,0,0,0,1.859,2.663l1.275.736a9.877,9.877,0,0,0,8.937.016c2.173-1.255,5.906-.356,5.916,1.424.011,2.015,2.849,3.654,6.339,3.66l1.8,0c3.491.006,6.312-1.622,6.3-3.637h0c-.01-1.78,3.713-2.665,5.9-1.4h0a9.877,9.877,0,0,0,8.938.016l1.266-.731c1.533-.885,2.105-2.115,1.72-3.263h0v-5.267a6.07,6.07,0,0,1,.68-.037c3.379.006,6.122-1.521,6.284-3.446l.009,0v-.1c0-.03.008-.059.007-.09l-.005-1.037ZM748.071,637.7c-6.145,0-11.125-2.876-11.125-6.423s4.981-6.424,11.125-6.424,11.126,2.876,11.126,6.424S754.216,637.7,748.071,637.7Z" transform="translate(-491.197 -360.325)"/><path class="e" d="M771.013,631.83h0c-2.187-1.262-.655-3.412,2.429-3.407h0c3.49.006,6.311-1.622,6.3-3.637l-.005-1.037c-.011-2.016-2.85-3.654-6.34-3.661h0c-3.084-.005-4.639-2.161-2.466-3.415h0c2.46-1.42,2.448-3.731-.028-5.16l-1.274-.736a9.878,9.878,0,0,0-8.938-.016h0c-2.174,1.255-5.906.356-5.916-1.424h0c-.011-2.015-2.849-3.654-6.34-3.66l-1.8,0c-3.491-.006-6.311,1.622-6.3,3.638h0c.01,1.78-3.713,2.664-5.9,1.4h0a9.877,9.877,0,0,0-8.938-.016l-1.266.731c-2.46,1.421-2.448,3.731.028,5.161,2.187,1.263.654,3.412-2.429,3.407h0c-3.49-.006-6.311,1.622-6.3,3.637l.006,1.037c.01,2.016,2.849,3.654,6.34,3.661h0c3.084.005,4.639,2.161,2.466,3.415h0c-2.46,1.421-2.448,3.731.028,5.161l1.275.736a9.876,9.876,0,0,0,8.937.016c2.174-1.255,5.906-.357,5.916,1.423.011,2.016,2.849,3.654,6.339,3.66l1.8,0c3.491.006,6.311-1.622,6.3-3.637h0c-.01-1.78,3.713-2.665,5.9-1.4h0a9.877,9.877,0,0,0,8.938.016l1.266-.731C773.5,635.57,773.488,633.26,771.013,631.83Zm-34.432-1.237c-6.145-3.548-6.176-9.281-.07-12.807s16.037-3.507,22.182.041,6.175,9.281.07,12.806S742.725,634.141,736.581,630.593Z" transform="translate(-491.197 -358.346)"/><path class="d" d="M765.6,574.133l0-4.975-2.885-.458-1.241-.594a2.15,2.15,0,0,0-1-1.058l-.738-.427a4.187,4.187,0,0,0-.5-.241l2.2-.1.116-3.339-9.606-1.132-.925-2.23-8.234.252,1.154,2.157c-2.146.16-4.9.369-4.9.369l-.45.576c-.884-.058-6.187-.447-6.187-.447v4.337l1.939-.338c-.06.03-.12.059-.177.092l-.734.424a2.071,2.071,0,0,0-1,1.1l-4.039.265v5.411l.036.008a1.234,1.234,0,0,0-.036.286l0,.6c.006,1.168,1.651,2.117,3.673,2.121h0c.12,0,.236.006.348.018l.018,3.409h0a1.806,1.806,0,0,0,1.077,1.543l.738.427a5.725,5.725,0,0,0,5.179.009c1.259-.727,3.422-.207,3.428.825.006,1.168,1.651,2.117,3.673,2.121l1.041,0c2.023,0,3.657-.94,3.651-2.107h0c-.006-1.032,2.151-1.544,3.419-.813h0a5.724,5.724,0,0,0,5.179.009l.734-.424c.888-.513,1.22-1.226,1-1.891h0v-3.052a3.551,3.551,0,0,1,.394-.021c1.958,0,3.547-.881,3.641-2h0v-.058c0-.018,0-.035,0-.052l0-.6Zm-18.347,1.237c-3.56,0-6.446-1.666-6.446-3.721s2.886-3.722,6.446-3.722,6.446,1.666,6.446,3.722S750.814,575.37,747.254,575.37Z" transform="translate(-496.535 -339.227)"/><path class="e" d="M760.547,571.97h0c-1.267-.732-.379-1.977,1.408-1.974h0c2.023,0,3.656-.94,3.651-2.107l0-.6c-.006-1.168-1.651-2.117-3.674-2.121h0c-1.787,0-2.688-1.252-1.428-1.979h0c1.425-.823,1.418-2.161-.016-2.99l-.738-.426a5.723,5.723,0,0,0-5.179-.009h0c-1.26.727-3.422.207-3.428-.825h0c-.006-1.168-1.651-2.117-3.674-2.121l-1.041,0c-2.023,0-3.657.94-3.65,2.107h0c.005,1.032-2.152,1.544-3.42.813h0a5.721,5.721,0,0,0-5.178-.009l-.734.424c-1.426.823-1.419,2.162.016,2.99,1.268.732.379,1.977-1.407,1.974h0c-2.023,0-3.657.94-3.651,2.107l0,.6c.006,1.167,1.651,2.117,3.673,2.121h0c1.786,0,2.688,1.252,1.428,1.979h0c-1.426.823-1.419,2.162.016,2.99l.738.426a5.723,5.723,0,0,0,5.179.009c1.259-.727,3.422-.207,3.428.825.006,1.168,1.651,2.117,3.673,2.121l1.041,0c2.023,0,3.657-.94,3.651-2.108h0c-.006-1.031,2.151-1.544,3.419-.812h0a5.723,5.723,0,0,0,5.179.009l.734-.424C761.989,574.137,761.981,572.8,760.547,571.97Zm-19.951-.717c-3.561-2.055-3.578-5.378-.04-7.42a14.2,14.2,0,0,1,12.853.023c3.56,2.056,3.578,5.378.04,7.421A14.205,14.205,0,0,1,740.6,571.253Z" transform="translate(-496.535 -338.081)"/><path class="f" d="M628.012,500.507s-7.121-2.465-9.154,3.731,1.243,9.134-1.921,13.089-6.477,14-1.2,15.362,8.1-.9,7.533-5.079-1.265-4.728,1.218-8.085S628.012,500.507,628.012,500.507Z" transform="translate(-448.655 -314.526)"/><path class="g" d="M628.141,502.523a3.61,3.61,0,1,0,3.58-4.069A3.848,3.848,0,0,0,628.141,502.523Z" transform="translate(-454.951 -313.875)"/><path class="h" d="M679.67,557.012s-8.752,1.36-11.914-12.394c-3.094-13.46-10.143-14.812-12.715-12.9s6.014,13.958,6.014,13.958,3.626,13.514,9.127,17.229C675.471,566.477,679.67,557.012,679.67,557.012Z" transform="translate(-465.909 -327.384)"/><ellipse class="i" cx="26.857" cy="13.342" rx="26.857" ry="13.342" transform="translate(149 320.772) rotate(-1.236)"/><path class="g" d="M598.878,738.707l-3.192-11.514a10.611,10.611,0,0,0-4.373-3.317,1.671,1.671,0,0,0-2.01.629l-.952,1.41c-1.443,1.986-1.428,2.4-.555,3.9l5.188,8.911a5.694,5.694,0,0,0,4.323,2.719h.426C599.236,741.439,599.752,740.208,598.878,738.707Z" transform="translate(-437.966 -407.322)"/><path class="g" d="M660.585,740.043l-9.849-6.761a10.605,10.605,0,0,0-5.479.276,1.672,1.672,0,0,0-1.132,1.775l.179,1.693c.174,2.449.452,2.758,2.086,3.345l9.7,3.483a5.686,5.686,0,0,0,5.056-.7l.325-.276C662.617,741.9,662.219,740.629,660.585,740.043Z" transform="translate(-461.576 -411.17)"/><path class="j" d="M643.177,677.49c.159,2.478,4.484,2.788,5.861.841,5.181-24.069,5.521-46.5,5.939-71.394l-15.1-11.393C642.387,625.433,646.129,654.559,643.177,677.49Z" transform="translate(-459.818 -354.145)"/><path class="j" d="M592.732,691.776c-1.019,2.048,2.866,4.607,4.629,2.892,8.825-8.032,15.812-20.651,21.628-35.525,5.247-13.421-7.736-18.931-10.308-4.88C606.25,667.539,601.533,680.168,592.732,691.776Z" transform="translate(-440.194 -375.09)"/><path class="g" d="M617.7,607.837l-7.057,40.083s16.394,16.247,35.147,0l-2.17-39.456Z" transform="translate(-447.694 -359.243)"/><path class="h" d="M647.015,576.43c1.019-8.492.921-18.325,2.17-28.8,0-12.609,0-16.083-9.772-17.022l-2.624.7a18.01,18.01,0,0,0-3.618,1.394c-12.291,6.332-14.822,7.7-14.283,15.034-.018,3.786,2.155-.223,2.7,2.26,1.052,4.766,1.049,16.684-1.011,25.2a4.458,4.458,0,0,0,1.58,4.614C628.263,584.446,644.6,581.579,647.015,576.43Z" transform="translate(-451.085 -327.21)"/><path class="f" d="M642.29,520.889a8.852,8.852,0,0,1-2.457,1.68c-.825.172-9.7-7-6.487-15.036,2.034-5.091,11.654-1.1,11.654-1.1Z" transform="translate(-456.82 -316.567)"/><path class="j" d="M641.989,534.079l.429.073a2.683,2.683,0,0,0,3.085-2.189l1.389-8.178A2.683,2.683,0,0,0,644.7,520.7l-.43-.073a2.683,2.683,0,0,0-3.085,2.189l-2.49,7.662C638.452,531.928,640.539,533.833,641.989,534.079Z" transform="translate(-459.321 -323.056)"/><path class="k" d="M647.391,531.872a7.325,7.325,0,0,1-5.8-3.29s2.211,5.137,5.416,5.577Z" transform="translate(-460.527 -326.371)"/><path class="j" d="M644,501.312c2.056-1.837,4.2-1.714,5.655,0,2.093-.3,3.933,1.366,4.609,4.608.941,4.514-.727,10.345-3.726,13.024-2.1,1.872-4.283,1.7-5.734-.1-2.569.286-5.261-1.64-5.955-4.967C637.909,509.36,641,503.992,644,501.312Z" transform="translate(-459.321 -314.508)"/><path class="f" d="M642.951,503.214s-.461,8.539-7.417,9.3c0,0-6.756-5.589.1-12.726,6.047-6.291,12.9.43,12.9.43Z" transform="translate(-456.784 -313.311)"/><path class="f" d="M639.509,507.065c1.892-1.815,8.637-.529,13.167,2.172,2.4.559,2.374-1.677,1.412-4.262a14.4,14.4,0,0,0-6.616-7.509l-2.082-1.145c-3.839-1.749-9.578,2.773-10.75,5.382l2.652.65C636.12,504.96,636.9,505.893,639.509,507.065Z" transform="translate(-457.646 -312.828)"/><path class="j" d="M636.755,523.722a2.03,2.03,0,1,0,1.573-2.4A2.03,2.03,0,0,0,636.755,523.722Z" transform="translate(-458.506 -323.341)"/><path class="j" d="M690.112,586.254l-2.334,1.489c-1.14.727-2.488.672-3-.123l-.355-.556c-.508-.795.01-2.041,1.151-2.768l2.334-1.489c1.14-.727,2.488-.671,3,.123l.356.556C691.771,584.281,691.253,585.526,690.112,586.254Z" transform="translate(-478.215 -348.65)"/><path class="l" d="M660.825,576.841l0-.568.73.283.157-.361L680,565.637a.964.964,0,0,1,.863.036l7.874,4.546v-.127l1.456.585v.6h-.01a.287.287,0,0,1-.139.156l-19.031,10.987a.961.961,0,0,1-.863-.036l-9.119-5.265a.352.352,0,0,1-.21-.281Z" transform="translate(-468.507 -341.705)"/><path class="m" d="M671.036,581.4l19.031-10.988c.221-.127.193-.351-.061-.5l-9.12-5.265a.963.963,0,0,0-.863-.036L660.992,575.6c-.22.127-.193.351.062.5l9.119,5.265A.964.964,0,0,0,671.036,581.4Z" transform="translate(-468.514 -341.279)"/><path class="l" d="M674.29,578.369l4.606-2.659c.053-.031.047-.085-.015-.12l-2.207-1.275a.232.232,0,0,0-.209-.008l-4.606,2.659c-.053.031-.046.085.015.121l2.207,1.275A.234.234,0,0,0,674.29,578.369Z" transform="translate(-473.068 -345.327)"/><path class="n" d="M677.625,563.613a2.066,2.066,0,0,1,.877-1.326L697.4,551.55a.47.47,0,0,1,.418-.067h0l0,0a.259.259,0,0,1,.1.075l.626.657-.569-.051-1.8,11.611a2.066,2.066,0,0,1-.877,1.326l-17.866,10.153-.577.648-.072.159c-.361.078-1.227-.536-1.227-.536Z" transform="translate(-474.618 -335.859)"/><path class="o" d="M677.718,577.037,696.612,566.3a2.067,2.067,0,0,0,.877-1.325l1.815-11.739c.078-.5-.189-.72-.6-.489l-18.894,10.738a2.065,2.065,0,0,0-.877,1.326l-1.815,11.739C677.045,577.05,677.311,577.269,677.718,577.037Z" transform="translate(-475.261 -336.356)"/><path class="n" d="M695.3,573.331c-.1.623.469.763,1.263.312a3.385,3.385,0,0,0,1.612-1.947c.1-.624-.469-.763-1.263-.312A3.384,3.384,0,0,0,695.3,573.331Z" transform="translate(-482.801 -344.014)"/><path class="p" d="M627.25,564.526l-7.5,16.358,8.074,5.063Z" transform="translate(-451.472 -341.279)"/><rect class="j" width="6.023" height="8.194" rx="3.012" transform="translate(191.642 243.493) rotate(86.26)"/><path class="j" d="M635.244,598.5s-17.834,2.034-19.827-10.335l4.227-3.862s-2.374,9.169,17,10.072Z" transform="translate(-449.673 -349.482)"/><path class="h" d="M623.387,552.778,621.068,575.1l-4.209,5.451s-6.418-2.021-5.591-11.771a52.493,52.493,0,0,1,5.733-20.3Z" transform="translate(-447.922 -334.623)"/><path class="q" d="M1035.276,693.913,809.4,563.5c-2.614-1.509-2.284-4.17.735-5.913L918.37,495.1c3.019-1.743,7.628-1.934,10.243-.424l225.879,130.412c2.615,1.509,2.284,4.17-.735,5.913l-108.238,62.491C1042.5,695.231,1037.891,695.423,1035.276,693.913Z" transform="translate(-529.398 -311.884)"/><path class="r" d="M1257.3,298.23c3.011,1.739,5.033,5.734,4.516,8.928l-23.442,144.878c-.514,3.2-3.374,4.373-6.386,2.634L1010.1,326.564c-3.011-1.739-5.033-5.735-4.516-8.928l23.439-144.88c.517-3.194,3.374-4.373,6.385-2.635Z" transform="translate(-611.467 -177.36)"/><path class="s" d="M1284.7,262.681,1064.779,135.708h0l-.015-.009-.327-.188,0,0c-.249-.143-.545-.314-.58-.332-.076-.041-.151-.08-.227-.117s-.154-.074-.231-.109-.153-.067-.23-.1-.16-.062-.239-.09-.16-.054-.239-.078-.171-.049-.255-.07l-.015,0h0l-.023,0c-.073-.018-.147-.035-.219-.049-.037-.008-.074-.012-.111-.019l-.092-.015-.071-.012c-.09-.012-.179-.021-.268-.027l-.023,0h0c-.107-.007-.211-.011-.314-.01l-.035,0c-.047,0-.093,0-.141.006s-.112,0-.166.008c-.016,0-.031,0-.047.006-.076.008-.151.02-.226.032-.04.007-.082.01-.122.018l-.026.008a3.551,3.551,0,0,0-.434.118l-.031.009c-.016.005-.029.015-.045.02a3.4,3.4,0,0,0-.527.243l-6.458,3.753a3.343,3.343,0,0,1,.518-.239c.068-.026.139-.047.21-.068s.169-.051.256-.07c.1-.023.208-.042.314-.056.04-.005.08-.013.121-.017a3.961,3.961,0,0,1,.452-.02l.086,0a4.547,4.547,0,0,1,.474.039l.035.006a5.064,5.064,0,0,1,.513.1l.042.012q.254.068.514.164l.051.019c.182.07.366.149.55.24.075.037.151.076.226.117.058.032.116.064.175.1l1.217.7h0L1279.054,266.9a.813.813,0,0,0,.817,0l4.834-2.809A.814.814,0,0,0,1284.7,262.681ZM1062.607,136.1Z" transform="translate(-631.183 -162.907)"/><path class="t" d="M1434.318,360.137c0-.082-.006-.164-.011-.246,0-.012,0-.023,0-.035l0-.034c0-.057-.008-.115-.013-.173-.008-.081-.017-.162-.027-.243,0-.038-.011-.077-.016-.115l-.007-.05c0-.026-.007-.052-.011-.078-.013-.081-.027-.162-.042-.243s-.03-.154-.047-.231l0-.009v-.006c-.018-.082-.037-.164-.057-.245s-.041-.162-.063-.242c-.006-.022-.013-.043-.018-.064l-.014-.046c-.012-.043-.024-.087-.037-.13-.024-.077-.048-.154-.074-.231-.019-.058-.04-.116-.061-.175l-.008-.025-.009-.026c-.026-.073-.054-.146-.082-.219s-.055-.139-.084-.209l-.037-.088-.016-.038-.035-.082q-.047-.108-.1-.215c-.033-.071-.068-.143-.1-.214l-.01-.02-.016-.032c-.038-.075-.076-.15-.116-.224s-.078-.137-.116-.205c-.026-.046-.051-.092-.077-.137-.013-.022-.024-.043-.037-.064-.066-.111-.136-.219-.206-.327-.023-.036-.044-.072-.067-.107l-.011-.016q-.136-.2-.281-.4l-.043-.056-.038-.05c-.034-.045-.067-.09-.1-.134-.058-.073-.116-.146-.176-.218l-.069-.081-.036-.042-.065-.076c-.059-.067-.118-.132-.178-.2-.045-.049-.092-.1-.138-.145l-.025-.026-.023-.023c-.064-.066-.13-.13-.2-.194s-.137-.129-.208-.193l0,0,0,0c-.068-.061-.136-.12-.2-.179s-.146-.121-.219-.178l-.027-.021-.031-.024-.162-.123q-.11-.081-.222-.158l-.063-.042-.02-.015-.007,0c-.044-.029-.088-.059-.132-.087-.074-.047-.149-.094-.225-.138l-5.372-3.1-6.6,3.983s5.661,2.962,5.736,3.01.149.1.223.147.149.1.222.159.148.11.22.167l.091.074c.116.094.23.191.342.291h0c.113.1.223.208.332.316l.042.04q.155.156.3.321l.045.05c.1.108.189.218.281.33l.049.06q.135.168.263.343c.044.06.086.122.129.183s.1.148.155.223.113.177.168.266c.036.059.074.115.108.174s.059.1.088.156c.053.092.105.184.155.277l.039.076c.067.129.132.259.193.39l.015.032q.1.208.182.418l.017.043c.055.137.107.275.156.413l.019.053q.07.2.131.41l.019.063c.039.136.075.273.108.41.005.021.01.042.015.063.031.137.06.275.085.413,0,.02.007.04.01.06.024.139.045.277.061.415l.006.055c.016.14.028.279.036.417,0,.069.008.139.009.208s0,.164,0,.245,0,.171-.006.256-.009.171-.016.255-.017.183-.029.274c-.009.071-.019.141-.031.211l-.062.38-.58,3.587-1.06-.61-6.686,3.619s1.6.927,1.673.974.149.1.223.147.149.1.222.158.148.11.22.167l.091.074q.174.14.342.291h0c.114.1.224.208.332.316l.041.041c.1.1.2.211.3.32l.045.05q.144.162.281.33l.049.06q.135.169.264.344c.044.06.085.122.128.183s.1.147.154.223.113.177.169.266c.036.059.073.115.108.174s.059.1.088.156c.053.092.106.184.155.277.013.025.026.05.039.075.067.129.132.259.193.39l.015.033c.064.138.125.277.182.418l.017.043c.055.137.107.275.156.414l.019.053c.047.136.091.273.131.41l.018.063q.059.2.108.41c.005.021.01.042.015.063q.048.206.085.413c0,.02.007.04.01.06q.036.208.062.416c0,.018,0,.036.006.055.007.058.01.116.015.174l-20.737,128.162c-.11.679-2.741,5.023-2.146,4.678l1.874-1.588-2.2,13.621c-.11.678-2.741,5.022-2.146,4.677l6.319-5.355a7.357,7.357,0,0,0,2.506-4.438l22.671-140.117.275-1.7q.017-.1.031-.211c.008-.06.013-.121.019-.18l0-.011c0-.008,0-.016,0-.025s0-.039.006-.059c.007-.085.012-.17.016-.255,0-.068,0-.136.005-.2,0-.01,0-.02,0-.03v-.023c0-.081,0-.163,0-.245s-.007-.164-.012-.247l0-.034,0-.035c0-.049-.008-.1-.012-.147l2.153-13.305c.11-.678.275-1.7.275-1.7.011-.07.021-.14.031-.211s.013-.12.018-.18l0-.01c0-.008,0-.016,0-.025s0-.039.006-.059q.011-.127.016-.255c0-.068,0-.136.005-.2v-.052C1434.322,360.3,1434.321,360.22,1434.318,360.137Z" transform="translate(-775.054 -252.044)"/><path class="u" d="M1261.483,269.383c3.012,1.739,5.034,5.734,4.516,8.928L1242.557,423.19c-.514,3.2-3.374,4.373-6.385,2.634L1014.283,297.717c-3.012-1.739-5.033-5.734-4.516-8.928l23.438-144.88c.517-3.194,3.374-4.373,6.386-2.635Z" transform="translate(-613.203 -165.396)"/><path class="v" d="M1257.9,291.6c2.857,1.618,4.793,5.1,4.324,7.779l-21.2,121.545c-.465,2.682-3.159,3.54-6.016,1.922l-210.46-119.225c-2.857-1.618-4.792-5.1-4.325-7.779l21.2-121.546c.468-2.68,3.16-3.54,6.016-1.922Z" transform="translate(-617.544 -178.287)"/><path class="u" d="M1149.921,579.6l-.049-6.737-8.673,3.355-1.858-4.283L922.278,446.613c-2.615-1.509-7.683-1.318-10.7.425l-93.912,53.955v-1.5l-14.409,6.94-2.071-.812.24,6.591a3.045,3.045,0,0,0,1.642,2.542l225.878,130.757c2.615,1.51,7.223,1.491,10.241-.252l108.238-62.405c1.648-.952,2.488-2.133,2.492-3.295Z" transform="translate(-526.723 -291.951)"/><path class="n" d="M1028.8,630.28,802.925,499.867c-2.614-1.509-2.284-4.17.736-5.913L911.9,431.463c3.019-1.743,7.628-1.934,10.242-.424L1148.02,561.45c2.614,1.509,2.283,4.17-.736,5.913l-108.238,62.491C1036.028,631.6,1031.419,631.789,1028.8,630.28Z" transform="translate(-526.714 -285.491)"/><path class="w" d="M1028.8,621.993,802.925,491.581c-2.614-1.509-2.284-4.17.736-5.913L911.9,423.176c3.019-1.743,7.628-1.934,10.242-.425l225.88,130.412c2.614,1.509,2.283,4.17-.736,5.913l-108.238,62.491C1036.028,623.311,1031.419,623.5,1028.8,621.993Z" transform="translate(-526.714 -282.054)"/><path class="x" d="M1011.078,467.255a1.728,1.728,0,0,1-1.491-.173l-13.714-7.914c-.494-.286-.63-.672-.3-.861l9.084-5.248a1.727,1.727,0,0,1,1.492.174l13.713,7.914c.494.285.63.671.3.861Z" transform="translate(-607.274 -295.004)"/><path class="x" d="M1038.262,507.632a1.716,1.716,0,0,1-1.5-.173l-13.713-7.913c-.493-.285-.625-.669-.294-.86l9.087-5.25a1.718,1.718,0,0,1,1.482.174l13.712,7.913c.5.289.63.673.308.859Z" transform="translate(-618.55 -311.751)"/><path class="x" d="M1024.52,524.394a1.721,1.721,0,0,1-1.488-.176l-13.716-7.915c-.486-.281-.634-.669-.3-.859l9.089-5.251a1.746,1.746,0,0,1,1.485.177l13.715,7.915c.493.285.628.672.307.858Z" transform="translate(-612.85 -318.703)"/><path class="x" d="M987.345,527.631a1.729,1.729,0,0,1-1.485-.172l-13.714-7.914c-.489-.282-.624-.671-.3-.858l9.087-5.25a1.734,1.734,0,0,1,1.489.171l13.714,7.915c.491.283.622.67.3.859Z" transform="translate(-597.435 -320.047)"/><path class="x" d="M922.854,517.575a1.727,1.727,0,0,1-1.489-.174l-13.714-7.914c-.494-.285-.631-.671-.3-.861l10.669-6.163a1.744,1.744,0,0,1,1.491.175l13.713,7.914c.494.285.623.675.3.86Z" transform="translate(-570.682 -315.496)"/><path class="x" d="M959.874,538.935a2.216,2.216,0,0,1-1.771-.337l-17.967-10.368c-.643-.371-.907-.831-.579-1.02l10.669-6.163a2.243,2.243,0,0,1,1.766.334l17.967,10.369c.651.376.9.837.584,1.022Z" transform="translate(-584.057 -323.213)"/><path class="x" d="M1164.979,660.22a1.7,1.7,0,0,1-1.391-.232l-13.7-7.908c-.5-.289-.685-.651-.413-.808l3.945-2.279a1.719,1.719,0,0,1,1.4.238l13.7,7.908c.494.285.672.646.4.8Z" transform="translate(-671.13 -376.284)"/><path class="x" d="M1196.287,678.756a1.7,1.7,0,0,1-1.391-.232l-13.7-7.908c-.5-.289-.685-.651-.412-.809l3.944-2.278a1.718,1.718,0,0,1,1.4.238l13.7,7.908c.494.285.672.647.4.8Z" transform="translate(-684.116 -383.972)"/><path class="x" d="M1229.483,697.539a1.7,1.7,0,0,1-1.374-.243l-13.707-7.91c-.491-.284-.689-.644-.427-.8l3.8-2.2a1.72,1.72,0,0,1,1.378.246l13.708,7.911c.494.284.682.643.422.793Z" transform="translate(-697.887 -391.799)"/><path class="x" d="M1209.07,671.672a1.7,1.7,0,0,1-1.374-.243l-13.708-7.911c-.492-.284-.69-.644-.426-.8l3.8-2.2a1.721,1.721,0,0,1,1.378.246l13.707,7.91c.494.285.682.643.422.794Z" transform="translate(-689.42 -381.07)"/><path class="x" d="M1070.912,603a1.741,1.741,0,0,1-1.5-.178l-89.237-51.5c-.487-.281-.632-.672-.3-.862l10.669-6.163a1.76,1.76,0,0,1,1.491.175l89.237,51.5c.5.286.631.679.31.864Z" transform="translate(-600.764 -332.849)"/><path class="x" d="M962.607,541.21a.215.215,0,0,1-.143-.04l-10.483-6.05c-.057-.033-.089-.07-.069-.082l.663-.383a.215.215,0,0,1,.142.039l10.483,6.05c.058.033.089.071.069.082Z" transform="translate(-589.238 -328.889)"/><path class="x" d="M921.037,515.243a.093.093,0,0,1-.082,0l-4.45-2.569c-.024-.014-.028-.036-.008-.047l.663-.383a.093.093,0,0,1,.082,0l4.45,2.569c.025.014.028.036.008.047Z" transform="translate(-574.546 -319.59)"/><path class="x" d="M1019.462,546.15a1.733,1.733,0,0,1-1.491-.176l-13.712-7.913c-.487-.281-.63-.674-.3-.862l9.087-5.249a1.751,1.751,0,0,1,1.494.174l13.712,7.913c.5.287.628.674.3.863Z" transform="translate(-610.753 -327.726)"/><path class="x" d="M1051.728,564.769a1.734,1.734,0,0,1-1.485-.172l-13.711-7.912c-.492-.284-.63-.674-.305-.861l9.087-5.25a1.744,1.744,0,0,1,1.495.175l13.711,7.912c.486.281.622.671.3.858Z" transform="translate(-624.138 -335.45)"/><path class="x" d="M1083.994,583.39a1.729,1.729,0,0,1-1.485-.172l-13.715-7.915c-.49-.282-.623-.669-.3-.857l9.087-5.249a1.731,1.731,0,0,1,1.488.17l13.714,7.914c.489.283.622.671.3.859Z" transform="translate(-637.522 -343.174)"/><path class="x" d="M1116.255,602.007a1.726,1.726,0,0,1-1.486-.173l-13.714-7.914c-.5-.286-.63-.674-.305-.861l9.087-5.25a1.735,1.735,0,0,1,1.494.174l13.714,7.915c.493.284.623.671.3.859Z" transform="translate(-650.9 -350.894)"/><path class="x" d="M1148.524,620.629a1.749,1.749,0,0,1-1.5-.179l-13.709-7.911c-.49-.283-.623-.669-.3-.857l9.087-5.25a1.732,1.732,0,0,1,1.488.171l13.709,7.911c.5.286.634.677.307.866Z" transform="translate(-664.284 -358.618)"/><path class="x" d="M1180.792,639.235a1.737,1.737,0,0,1-1.489-.174l-13.71-7.912c-.493-.285-.629-.673-.3-.861l9.087-5.25a1.741,1.741,0,0,1,1.494.174l13.71,7.912c.492.284.626.673.3.861Z" transform="translate(-677.669 -366.335)"/><path class="x" d="M1236.705,671.5a1.733,1.733,0,0,1-1.489-.174l-37.36-21.56c-.494-.285-.628-.672-.3-.86l9.087-5.25a1.733,1.733,0,0,1,1.492.173l37.361,21.561c.494.284.626.672.3.861Z" transform="translate(-691.05 -374.058)"/><path class="x" d="M1056.633,542.91a1.7,1.7,0,0,1-1.481-.172l-13.715-7.915c-.493-.284-.631-.667-.3-.857l9.089-5.251a1.728,1.728,0,0,1,1.482.175l13.715,7.915c.5.286.622.668.3.854Z" transform="translate(-626.173 -326.385)"/><path class="x" d="M1088.9,561.533a1.723,1.723,0,0,1-1.485-.173l-13.719-7.918c-.488-.281-.626-.664-.3-.854l9.089-5.251a1.725,1.725,0,0,1,1.479.172l13.719,7.917c.489.282.625.671.3.856Z" transform="translate(-639.556 -334.108)"/><path class="x" d="M1121.166,580.151a1.725,1.725,0,0,1-1.488-.175l-13.712-7.913c-.486-.28-.637-.671-.307-.861l9.089-5.251a1.754,1.754,0,0,1,1.489.179l13.713,7.913c.489.283.628.672.306.858Z" transform="translate(-652.936 -341.829)"/><path class="x" d="M1153.428,598.77a1.719,1.719,0,0,1-1.486-.174l-13.71-7.912c-.494-.285-.634-.669-.3-.859l9.089-5.25a1.732,1.732,0,0,1,1.486.176l13.71,7.912c.492.284.626.671.3.857Z" transform="translate(-666.32 -349.553)"/><path class="x" d="M1185.7,617.379a1.722,1.722,0,0,1-1.486-.174l-13.719-7.916c-.494-.285-.63-.667-.3-.857l9.089-5.25a1.722,1.722,0,0,1,1.482.174l13.718,7.916c.49.283.626.671.3.857Z" transform="translate(-679.704 -357.27)"/><path class="x" d="M1217.961,635.995a1.711,1.711,0,0,1-1.484-.173l-13.708-7.911c-.5-.287-.638-.671-.308-.861l9.089-5.251a1.736,1.736,0,0,1,1.49.178l13.708,7.911c.491.284.624.669.3.855Z" transform="translate(-693.086 -364.993)"/><path class="x" d="M1250.225,654.615a1.716,1.716,0,0,1-1.484-.173l-13.718-7.916c-.49-.283-.625-.664-.3-.854l9.089-5.251a1.721,1.721,0,0,1,1.478.172l13.718,7.916c.49.283.624.669.3.856Z" transform="translate(-706.468 -372.716)"/><path class="x" d="M1070.38,526.152a1.721,1.721,0,0,1-1.494-.171l-13.713-7.914c-.488-.281-.623-.667-.291-.859l9.088-5.249a1.724,1.724,0,0,1,1.479.171l13.713,7.914c.495.286.629.672.306.858Z" transform="translate(-631.873 -319.434)"/><path class="x" d="M1102.637,544.767a1.725,1.725,0,0,1-1.489-.169l-13.713-7.914c-.493-.284-.63-.671-.3-.863l9.087-5.25a1.735,1.735,0,0,1,1.487.176l13.713,7.913c.488.281.623.669.3.855Z" transform="translate(-645.252 -327.155)"/><path class="x" d="M1134.9,563.388a1.725,1.725,0,0,1-1.5-.173L1119.7,555.3c-.489-.283-.624-.668-.293-.86l9.088-5.25a1.727,1.727,0,0,1,1.481.173l13.711,7.912c.5.287.63.673.307.86Z" transform="translate(-658.635 -334.878)"/><path class="x" d="M1167.162,582a1.711,1.711,0,0,1-1.489-.169l-13.714-7.914c-.494-.285-.63-.671-.3-.863l9.088-5.25a1.731,1.731,0,0,1,1.486.176l13.714,7.914c.495.286.623.669.3.855Z" transform="translate(-672.014 -342.599)"/><path class="x" d="M1199.438,600.614a1.719,1.719,0,0,1-1.485-.167l-13.714-7.915c-.5-.286-.628-.669-.3-.862l9.088-5.25a1.724,1.724,0,0,1,1.484.175l13.714,7.914c.486.28.62.667.3.853Z" transform="translate(-685.403 -350.319)"/><path class="x" d="M1231.706,619.235a1.729,1.729,0,0,1-1.5-.174l-13.712-7.913c-.486-.28-.626-.669-.294-.86l9.087-5.25a1.737,1.737,0,0,1,1.482.174l13.713,7.913c.5.287.632.674.31.861Z" transform="translate(-698.784 -358.04)"/><path class="x" d="M1263.965,637.851a1.719,1.719,0,0,1-1.489-.169l-13.714-7.914c-.494-.285-.627-.67-.3-.861l9.087-5.25a1.726,1.726,0,0,1,1.485.174l13.714,7.915c.489.283.624.67.3.856Z" transform="translate(-712.165 -365.763)"/><path class="x" d="M999.236,485.111a1.727,1.727,0,0,1-1.5-.172l-23.251-13.418c-.494-.286-.63-.671-.3-.863l9.088-5.25a1.734,1.734,0,0,1,1.488.177L1008.017,479c.5.285.629.672.307.859Z" transform="translate(-598.405 -300.127)"/><path class="x" d="M1310.849,640.218a1.728,1.728,0,0,1-1.491-.173l-23.252-13.418c-.485-.28-.627-.671-.3-.86l9.084-5.248a1.733,1.733,0,0,1,1.49.172l23.253,13.418c.494.285.63.671.3.861Z" transform="translate(-727.655 -364.461)"/><path class="x" d="M982.321,500.042a1.711,1.711,0,0,1-1.488-.175l-27.719-16c-.495-.286-.634-.669-.3-.859l9.089-5.251a1.733,1.733,0,0,1,1.487.177l27.719,16c.5.288.628.672.307.857Z" transform="translate(-589.538 -305.25)"/><path class="x" d="M951.705,507.063a1.735,1.735,0,0,1-1.49-.175l-18.483-10.666c-.495-.286-.628-.673-.3-.861l9.087-5.249a1.734,1.734,0,0,1,1.493.173l18.482,10.666c.494.285.627.674.3.862Z" transform="translate(-580.671 -310.372)"/><path class="x" d="M1043.34,485.873a1.727,1.727,0,0,1-1.494-.175l-13.7-7.908c-.494-.285-.63-.672-.3-.862l9.084-5.248a1.728,1.728,0,0,1,1.492.174l13.7,7.908c.5.289.633.672.3.863Z" transform="translate(-620.659 -302.727)"/><path class="x" d="M1075.458,504.393a1.734,1.734,0,0,1-1.494-.174l-13.713-7.914c-.491-.283-.629-.671-.3-.861l9.084-5.248a1.731,1.731,0,0,1,1.491.173l13.713,7.914c.494.285.633.672.3.863Z" transform="translate(-633.977 -310.407)"/><path class="x" d="M1107.715,523.008a1.711,1.711,0,0,1-1.486-.17l-13.713-7.914c-.491-.283-.626-.67-.3-.859l9.084-5.248a1.725,1.725,0,0,1,1.488.171L1116.5,516.9c.5.286.625.668.3.858Z" transform="translate(-647.36 -318.13)"/><path class="x" d="M1139.988,541.632a1.733,1.733,0,0,1-1.493-.174l-13.7-7.909c-.5-.287-.631-.672-.3-.862l9.084-5.248a1.726,1.726,0,0,1,1.494.174l13.7,7.909c.493.284.631.671.3.861Z" transform="translate(-660.745 -325.854)"/><path class="x" d="M1172.242,560.245a1.707,1.707,0,0,1-1.485-.17l-13.71-7.912c-.5-.287-.631-.673-.3-.863l9.084-5.248a1.726,1.726,0,0,1,1.494.174l13.71,7.912c.5.287.624.667.294.857Z" transform="translate(-674.123 -333.574)"/><path class="x" d="M1204.522,578.858a1.727,1.727,0,0,1-1.487-.171l-13.718-7.916c-.49-.283-.623-.668-.3-.857l9.085-5.248a1.718,1.718,0,0,1,1.484.17l13.719,7.917c.488.281.626.668.3.858Z" transform="translate(-687.511 -341.294)"/><path class="x" d="M1236.782,597.475a1.728,1.728,0,0,1-1.492-.173l-13.712-7.913c-.5-.286-.633-.674-.305-.863l9.084-5.248a1.732,1.732,0,0,1,1.5.176l13.712,7.913c.494.285.63.671.3.861Z" transform="translate(-700.888 -349.014)"/><path class="x" d="M1269.042,616.092a1.715,1.715,0,0,1-1.483-.168L1253.837,608c-.488-.281-.621-.667-.293-.856l9.084-5.248a1.715,1.715,0,0,1,1.483.168l13.722,7.919c.49.282.622.665.293.856Z" transform="translate(-714.273 -356.738)"/><path class="x" d="M1285.6,642.448a2.1,2.1,0,0,0-.8-.263,1.111,1.111,0,0,0-.675.091l-9.088,5.25a.311.311,0,0,0-.164.393,1,1,0,0,0,.455.464l3.58,2.066-11.917,6.883a.308.308,0,0,0-.155.4.986.986,0,0,0,.46.464l9.238,5.331a2.147,2.147,0,0,0,.807.267,1.126,1.126,0,0,0,.685-.09l21.6-12.479a.3.3,0,0,0,.152-.393.971.971,0,0,0-.462-.468Z" transform="translate(-719.849 -373.484)"/><path class="x" d="M954.419,506.935a.214.214,0,0,1-.143-.04l-10.483-6.05c-.057-.033-.089-.071-.068-.082l.662-.383a.213.213,0,0,1,.142.039l10.483,6.05c.059.033.09.071.07.083Z" transform="translate(-585.842 -314.672)"/><path class="q" d="M716.056,859.328l-68.328-39.589c-4.093-2.371-3.573-6.5,1.162-9.226l123.918-71.292c4.734-2.724,11.891-3.01,15.984-.638l68.328,39.589c4.093,2.371,3.573,6.5-1.162,9.226L732.04,858.69C727.305,861.413,720.149,861.7,716.056,859.328Z" transform="translate(-461.93 -412.806)"/><path class="y" d="M860.343,741.694l-68.328-39.589c-4.093-2.371-11.249-2.086-15.983.638l-119.6,68.807c1.063-2.928,2.145-6.055,2.145-6.055L648.141,768l.191,10.251c-.488,1.851.358,3.7,2.62,5.008l68.328,39.589c4.093,2.371,11.249,2.086,15.984-.638L859.182,750.92C863.916,748.2,864.436,744.066,860.343,741.694Z" transform="translate(-463.246 -397.676)"/><path class="z" d="M918.849,734.484l-13.189,1.174-57.91-33.552c-4.093-2.371-11.249-2.086-15.983.638l-49.25,82.169.249,39.528a18.336,18.336,0,0,0,8.233-2.23L914.916,750.92c2.71-1.559,4.032-3.579,3.906-5.466Z" transform="translate(-518.98 -397.676)"/><ellipse class="aa" cx="1.526" cy="2.643" rx="1.526" ry="2.643" transform="translate(247.795 414.427) rotate(-30.225)"/><path class="n" d="M719.336,803.213l-68.328-39.589c-4.093-2.372-3.573-6.5,1.162-9.226l123.918-71.292c4.735-2.724,11.891-3.009,15.984-.638L860.4,722.057c4.093,2.371,3.573,6.5-1.162,9.226L735.319,802.575C730.585,805.3,723.429,805.585,719.336,803.213Z" transform="translate(-463.291 -389.532)"/><path class="g" d="M719.336,799.452l-68.328-39.589c-4.093-2.372-3.573-6.5,1.162-9.226l123.918-71.292c4.735-2.724,11.891-3.009,15.984-.638L860.4,718.3c4.093,2.371,3.573,6.5-1.162,9.225L735.319,798.814C730.585,801.538,723.429,801.824,719.336,799.452Z" transform="translate(-463.291 -387.972)"/><path class="ab" d="M942.534,722.042,923.668,711.11c-.778-.451-.678-1.243.222-1.76h0a3.4,3.4,0,0,1,3.051-.122l18.866,10.931c.778.451.678,1.243-.222,1.761h0A3.405,3.405,0,0,1,942.534,722.042Z" transform="translate(-577.308 -401.171)"/><path class="aa" d="M710.189,865.977l-15.154-8.78a2.81,2.81,0,0,1-1.165-2.234h0c0-.856.528-1.253,1.169-.881l15.154,8.78a2.807,2.807,0,0,1,1.165,2.234h0C711.357,865.952,710.831,866.349,710.189,865.977Z" transform="translate(-482.213 -461.32)"/><path class="c" d="M798.123,691.354,693.92,751.3a3.637,3.637,0,0,0-.01,6.3l63.154,36.591a3.637,3.637,0,0,0,3.637.005l104.2-59.949a3.637,3.637,0,0,0,.009-6.3L801.76,691.359A3.637,3.637,0,0,0,798.123,691.354Z" transform="translate(-481.477 -393.682)"/><path class="ac" d="M967.653,794.224h0a1.43,1.43,0,0,0,2.293,1.156l7.441-4.312a3.826,3.826,0,0,0,1.721-3.482h0a1.43,1.43,0,0,0-2.294-1.157l-7.441,4.313A3.825,3.825,0,0,0,967.653,794.224Z" transform="translate(-595.76 -433.204)"/><path class="ad" d="M968.688,795.371h0a1.43,1.43,0,0,0,2.293,1.156l7.442-4.312a3.826,3.826,0,0,0,1.72-3.483h0a1.429,1.429,0,0,0-2.293-1.156l-7.442,4.313A3.825,3.825,0,0,0,968.688,795.371Z" transform="translate(-596.19 -433.68)"/><path class="ac" d="M944.589,807.87h0a1.43,1.43,0,0,0,2.294,1.156l7.441-4.313a3.825,3.825,0,0,0,1.721-3.482h0a1.43,1.43,0,0,0-2.294-1.156l-7.441,4.313A3.826,3.826,0,0,0,944.589,807.87Z" transform="translate(-586.194 -438.864)"/><path class="ad" d="M945.542,808.785h0a1.43,1.43,0,0,0,2.293,1.156l7.441-4.313A3.826,3.826,0,0,0,957,802.146h0a1.43,1.43,0,0,0-2.293-1.156l-7.442,4.313A3.825,3.825,0,0,0,945.542,808.785Z" transform="translate(-586.59 -439.244)"/><path class="ae" d="M847.187,726.917l-41.95,22.966c-8.848-2.392-19.561-1.637-26.915,2.388-6.77,3.706-8.888,9.2-6.315,14.123-1.228,4.256.956,8.833,6.593,12.261l.03.018a11.454,11.454,0,0,1-7.671,3.866c-2.73.174-5.312.813-7.432-.893-.385-.31-1.876,1.38-2.115,2.317-3.98,3.385-8.377,9.281,3.274,12.932,17.092,5.357,30.683,1.282,34.241,10.716l1.64-9.024s10.158,3.154,9.295,2.55-3.953-9.735-21.452-9.548c-14.748.157-27.107-.184-25.676-6.23,6.143,3.845,14.9,1.91,19.529-3.745a1.7,1.7,0,0,0,.358-.974c9.375,3.73,22.126,3.391,30.51-1.2,6.771-3.707,8.888-9.2,6.315-14.123a8.37,8.37,0,0,0,.315-1.853l26.13-14.3,4.853-8.424.6-8.749Z" transform="translate(-508.472 -408.634)"/><path class="af" d="M874.445,712.68l-61.6,33.229,12.71,7.729,43.445-23.784,4.853-8.424Z" transform="translate(-531.558 -402.729)"/><path class="af" d="M823.884,756.486c-9.411-5.722-24.872-6.074-34.533-.785s-9.863,14.215-.452,19.938,24.872,6.074,34.533.785S833.295,762.208,823.884,756.486Z" transform="translate(-518.754 -419.018)"/><path class="n" d="M869.772,704.019l-58.18,31.851L824.3,743.6l43.445-23.784,6.18-10.727Z" transform="translate(-531.04 -399.137)"/><path class="n" d="M822.637,745.471c-9.411-5.722-24.872-6.074-34.532-.785s-9.863,14.215-.452,19.937,24.871,6.074,34.532.785S832.048,751.193,822.637,745.471Z" transform="translate(-518.237 -414.449)"/><path class="w" d="M821.273,749.634c-6.686-4.066-17.671-4.315-24.535-.558s-7.008,10.1-.321,14.165,17.671,4.315,24.535.558S827.959,753.7,821.273,749.634Z" transform="translate(-522.704 -416.721)"/><path class="af" d="M805.191,770.375c-.05,2.216-3.207,3.94-7.051,3.853s-6.92-1.954-6.869-4.169,3.208-3.94,7.051-3.853S805.241,768.16,805.191,770.375Z" transform="translate(-522.611 -424.928)"/><path class="w" d="M804.809,775.162a8.632,8.632,0,0,1-6.168,1.96c-2.714-.062-5.045-1.01-6.163-2.343C795.177,772.207,803.294,773.033,804.809,775.162Z" transform="translate(-523.112 -427.822)"/><rect class="w" width="51.514" height="1.169" transform="matrix(0.873, -0.488, 0.488, 0.873, 294.781, 331.1)"/><rect class="w" width="60.256" height="1.169" transform="translate(288.684 337.451) rotate(-29.948)"/><rect class="w" width="51.635" height="1.169" transform="translate(296.379 337.627) rotate(-29.846)"/><path class="u" d="M779.3,768.5a15.23,15.23,0,0,0-16.7-5.233c-5.529,1.917-8.02,7.4-7.915,12.951.262,13.856,17.117,16.648,25.239,7.226,1.433-1.663-.929-4.162-2.374-2.485-5.989,6.948-19.134,6.466-19.429-4.663-.3-11.161,12.393-13.365,18.7-5.421,1.376,1.734,3.851-.653,2.485-2.374Z" transform="translate(-507.436 -423.392)"/><path class="ag" d="M765.827,801.237a.337.337,0,0,0-.474-.463c-3.895,2.75-12.467,10.177,1.271,14.482,17.092,5.357,30.683,1.282,34.242,10.716l1.639-9.023s10.158,3.153,9.295,2.549-3.953-9.735-21.453-9.548C773.793,810.127,760.232,809.681,765.827,801.237Z" transform="translate(-509.275 -439.241)"/><path class="c" d="M1162.846,229.642,1070.7,177.16c-5.046-2.874-10.292.859-11.657,8.293l-6.889,37.515c-.008.04-.016.078-.024.119L1039.89,289.73c-1.292,7.039,1.309,13.309,6.824,16.451l84.638,48.206c7.725,4.4,19.645-2.423,21.455-12.282l6.9-37.565c0-.023.01-.045.015-.068l10.484-57.088C1171.6,239.792,1168.794,233.029,1162.846,229.642Z" transform="translate(-625.595 -180.21)"/><path class="c" d="M1343.617,360.338l-71.257-40.585c-3.9-2.222-7.958.664-9.014,6.414l-5.327,29.01c-.006.031-.013.06-.019.091l-9.464,51.536c-1,5.443,1.012,10.292,5.277,12.721l65.451,37.278c5.974,3.4,15.192-1.874,16.591-9.5l5.335-29.049c0-.018.008-.035.011-.052l8.107-44.146C1350.385,368.187,1348.216,362.958,1343.617,360.338Z" transform="translate(-712.165 -239.445)"/><path class="ah" d="M1151.391,348.47l-65.1-36.686c-3.232-1.821-5.3-6.753-4.588-10.96l1.4-8.285c.708-4.206,3.933-6.158,7.165-4.336l65.1,36.686c3.232,1.821,5.3,6.753,4.588,10.96l-1.4,8.285C1157.848,348.34,1154.623,350.292,1151.391,348.47Z" transform="translate(-643.017 -226.387)"/><path class="ah" d="M1163.733,293.328l-65.1-36.687c-3.232-1.821-5.3-6.753-4.588-10.96l1.4-8.285c.709-4.207,3.933-6.158,7.165-4.337l65.1,36.686c3.232,1.822,5.3,6.754,4.588,10.96l-1.4,8.285C1170.189,293.2,1166.965,295.149,1163.733,293.328Z" transform="translate(-648.136 -203.515)"/><path class="n" d="M1107.881,318.219l-1.84-.989,1.546-.69-1.048-2.076-1.546.69.348-1.965-1.828-.983-.348,1.966-1.055-2.09-1.536.687,1.054,2.089-1.839-.989-.345,1.954,1.839.989-1.547.691,1.048,2.076,1.547-.691-.348,1.967,1.828.983.348-1.966,1.055,2.089,1.537-.686-1.055-2.09,1.84.989Z" transform="translate(-650.431 -236.574)"/><path class="n" d="M1128.472,329.29l-1.84-.989,1.546-.69-1.048-2.076-1.546.69.347-1.966-1.828-.983-.348,1.966-1.055-2.089-1.536.687,1.054,2.089-1.839-.989-.345,1.954,1.839.989-1.547.69,1.048,2.076,1.547-.691-.348,1.967,1.828.983.348-1.966,1.055,2.089,1.537-.686-1.055-2.09,1.84.989Z" transform="translate(-658.972 -241.166)"/><path class="n" d="M1149.062,340.361l-1.84-.989,1.546-.69-1.048-2.076-1.546.69.347-1.966-1.828-.983-.348,1.966-1.055-2.09-1.537.687,1.055,2.089-1.839-.989-.345,1.954,1.839.989-1.547.69,1.048,2.076,1.547-.691-.348,1.967,1.829.983.347-1.966,1.055,2.089,1.537-.686-1.056-2.09,1.84.989Z" transform="translate(-667.512 -245.758)"/><path class="n" d="M1169.652,351.432l-1.839-.989,1.546-.69-1.048-2.076-1.546.69.347-1.966-1.828-.983-.348,1.966-1.055-2.09-1.536.687,1.055,2.089-1.839-.989-.346,1.954,1.84.989-1.547.691,1.048,2.076,1.547-.691-.348,1.967,1.828.983.348-1.966,1.055,2.089,1.537-.686-1.055-2.09,1.84.989Z" transform="translate(-676.052 -250.35)"/><path class="n" d="M1190.243,362.5l-1.839-.989,1.546-.69-1.048-2.076-1.546.69.347-1.966-1.828-.983-.348,1.966-1.055-2.09-1.537.687,1.055,2.089-1.839-.989-.345,1.954,1.84.989-1.547.691,1.049,2.076,1.547-.691-.348,1.967,1.828.983.348-1.966,1.055,2.089,1.537-.686-1.055-2.09,1.84.989Z" transform="translate(-684.593 -254.941)"/><path class="n" d="M1162.188,289.893l-50.447-28.885a5.508,5.508,0,0,1-2.551-4.795h0c.152-1.747,1.548-2.448,3.1-1.558l50.447,28.885a5.509,5.509,0,0,1,2.551,4.795h0C1165.139,290.082,1163.742,290.782,1162.188,289.893Z" transform="translate(-654.469 -212.595)"/><path class="ag" d="M1135.822,408.384l-65.1-36.686c-3.232-1.821-5.3-6.753-4.588-10.96l1.4-8.285c.709-4.206,3.933-6.157,7.165-4.336l65.1,36.686c3.232,1.821,5.3,6.754,4.588,10.96l-1.4,8.285C1142.277,408.255,1139.053,410.206,1135.822,408.384Z" transform="translate(-636.559 -251.237)"/><path class="n" d="M1134.276,404.949l-50.447-28.884a5.509,5.509,0,0,1-2.55-4.795h0c.152-1.747,1.548-2.448,3.1-1.558l50.447,28.884a5.51,5.51,0,0,1,2.55,4.795h0C1137.227,405.138,1135.831,405.839,1134.276,404.949Z" transform="translate(-642.892 -260.317)"/><path class="l" d="M1191.7,167.586,1154.171,145c-1.094-.658-3.633-2.531-4.8-2.12l-.911.493-11.945,5.8,6.4,10.383-1.79,9.951c-1.146,6.374,2.106,14.111,7.229,17.193l17.978,10.819,6.985,13.209,12.159-5.4a6.342,6.342,0,0,0,.6-.353l.042-.025v0a9.136,9.136,0,0,0,3.621-6.185l4.514-25.093A6.284,6.284,0,0,0,1191.7,167.586Z" transform="translate(-665.807 -166.37)"/><path class="n" d="M1162.483,214.391l-29.7-16.53c-5.072-2.823-8.284-10.347-7.138-16.721l4.515-25.093c.406-2.256,2.207-3.285,4-2.285l41.615,23.162a5.949,5.949,0,0,1,2.527,5.92l-4.514,25.093C1172.644,214.31,1167.555,217.215,1162.483,214.391Z" transform="translate(-661.203 -170.749)"/><path class="n" d="M1132.941,194.229h0a1.429,1.429,0,0,1-1.563-1.607l4.515-25.1a2.138,2.138,0,0,1,2.134-1.566h0a1.43,1.43,0,0,1,1.563,1.608l-4.515,25.1A2.137,2.137,0,0,1,1132.941,194.229Z" transform="translate(-663.667 -175.967)"/><path class="ai" d="M1207.807,180.762a11.462,11.462,0,0,1-8.653-.28c-2.33-1.208-2.235-3.04.213-4.094a11.463,11.463,0,0,1,8.652.28C1210.349,177.876,1210.255,179.709,1207.807,180.762Z" transform="translate(-691.088 -179.996)"/><path class="aj" d="M1207.94,178.483a11.463,11.463,0,0,1-8.652-.28c-2.331-1.208-2.236-3.04.212-4.094a11.462,11.462,0,0,1,8.653.28C1210.483,175.6,1210.388,177.429,1207.94,178.483Z" transform="translate(-691.143 -179.051)"/><path class="ai" d="M1166.792,159.116a11.462,11.462,0,0,1-8.653-.28c-2.33-1.207-2.236-3.04.213-4.093a11.462,11.462,0,0,1,8.653.28C1169.334,156.231,1169.24,158.063,1166.792,159.116Z" transform="translate(-674.076 -171.018)"/><ellipse class="aj" cx="2.898" cy="6.122" rx="2.898" ry="6.122" transform="translate(482.376 -12.69) rotate(-88.466)"/><path class="ai" d="M1208.8,177.169a7.677,7.677,0,0,1-5.8-.188c-1.561-.809-1.5-2.037.143-2.742a7.673,7.673,0,0,1,5.8.188C1210.506,175.236,1210.442,176.464,1208.8,177.169Z" transform="translate(-692.917 -179.203)"/><path class="ai" d="M1167.041,155.473a7.68,7.68,0,0,1-5.8-.188c-1.561-.809-1.5-2.037.143-2.742a7.678,7.678,0,0,1,5.8.188C1168.745,153.54,1168.681,154.767,1167.041,155.473Z" transform="translate(-675.596 -170.204)"/><path class="ai" d="M1184.7,153.037l2.069-11.47c1.075-4.047-.58-9.989-4.7-12.186l-4.256-2.273a5.486,5.486,0,0,0-4.252-.589,4.939,4.939,0,0,0-2.5,1.984,5.735,5.735,0,0,0-.9,2.261l-1.707,9.79c-.637,1.694-8.833,1.441-8.2-.253l2.48-11.561a13.34,13.34,0,0,1,8.424-7.976,14.768,14.768,0,0,1,11.484,1.048l4.256,2.273c6.753,3.605,9.429,9.73,8.042,18.767l-2.208,10.981C1192.173,155.358,1184.068,154.731,1184.7,153.037Z" transform="translate(-675.645 -156.928)"/><path class="ak" d="M1160.572,194.013c.562-2.91,3.458-4,6.469-2.437s5,5.19,4.434,8.1-3.458,4-6.469,2.438S1160.01,196.922,1160.572,194.013Z" transform="translate(-675.746 -186.296)"/><path class="ak" d="M1166.043,195.39l.4.133c1.49.49,2.334,2.749,1.875,5.02l-1.426,7.044c-.46,2.271-2.056,3.729-3.547,3.239l-.4-.133c-1.49-.49-2.334-2.749-1.874-5.02l1.426-7.044C1162.956,196.356,1164.552,194.9,1166.043,195.39Z" transform="translate(-675.94 -188.134)"/><path class="ai" d="M1164.342,203.579l.942-4.655a7.214,7.214,0,0,1-1.247-5.165,3.754,3.754,0,0,1,1.828-2.665c-2.556-.765-4.8.388-5.293,2.916a7.213,7.213,0,0,0,1.247,5.165l-.943,4.655c-.46,2.271.384,4.53,1.874,5.02l.4.133a2.254,2.254,0,0,0,2.36-.784A4.92,4.92,0,0,1,1164.342,203.579Z" transform="translate(-675.747 -186.295)"/><path class="ag" d="M1348.541,426.572c3.4-17.816-5.9-41.042-20.784-51.877-6.845-4.984-13.673-6.469-19.387-4.895l0-.006-.062.022a16.046,16.046,0,0,0-2.247.815l-13.578,5.464,6.678.248a27.11,27.11,0,0,0-4.5,10.994c-3.4,17.817,5.905,41.043,20.785,51.878a29.9,29.9,0,0,0,9.033,4.607l1.184,3.9,9.462-3.685a15.835,15.835,0,0,0,1.525-.545l.169-.06,0-.01C1342.546,440.993,1346.891,435.22,1348.541,426.572Z" transform="translate(-730.497 -260.264)"/><ellipse class="al" cx="25.047" cy="39.521" rx="25.047" ry="39.521" transform="translate(540.466 124.611) rotate(-22.457)"/><path class="am" d="M1295.191,406.266l10.989,37.3,17.471-12.329" transform="translate(-731.621 -275.638)"/><ellipse class="an" cx="24.617" cy="12.537" rx="24.617" ry="12.537" transform="translate(438.934 367.14)"/><path class="ao" d="M1176.359,743.152s16.815-9.192,12.594-19.914-21.624,14.71-21.624,14.71Z" transform="translate(-678.588 -406.014)"/><path class="u" d="M1149.936,715.969c1.479,0,31.08,10.672,31.052-13.844S1143.2,705.6,1143.2,705.6Z" transform="translate(-668.58 -394.177)"/><path class="g" d="M1095.476,815.947l9.71-9.868a12.3,12.3,0,0,1,6.3-.9,1.939,1.939,0,0,1,1.683,1.767l.171,1.964c.345,2.823.1,3.236-1.632,4.265l-10.267,6.108a6.6,6.6,0,0,1-5.908.323l-.431-.241C1093.577,818.514,1093.747,816.976,1095.476,815.947Z" transform="translate(-648.198 -441.064)"/><path class="ap" d="M1120.455,800.735c0,2.906-7.069,2.906-7.069,0V791.29h7.069Z" transform="translate(-656.214 -435.334)"/><path class="g" d="M1127.518,832.473l8.41-11a12.3,12.3,0,0,1,6.135-1.675,1.938,1.938,0,0,1,1.889,1.545l.414,1.927c.693,2.759.5,3.2-1.09,4.434l-9.43,7.335a6.6,6.6,0,0,1-5.822,1.054l-.458-.185C1125.952,835.255,1125.93,833.708,1127.518,832.473Z" transform="translate(-661.588 -447.159)"/><path class="ap" d="M1149.3,815.137c.36,2.883-6.654,3.761-7.015.877l-1.172-9.372,7.014-.877Z" transform="translate(-667.714 -441.338)"/><path class="u" d="M1135.243,694.694s-21.882,11.2-22.8,17.027c-.8,5.118-1.686,35.419-1.172,42.54a2.844,2.844,0,0,0,1.6,2.373c2.168,1.032,6.083,2.162,7.391-2.254,1.844-6.228,1.209-27.515,5.62-33.606s26.306-14.686,26.306-14.686Z" transform="translate(-655.276 -395.269)"/><path class="u" d="M1159.51,712.055s-24.482,12.206-25.2,17.756c-.628,4.844,2.395,32.44,3.173,39.379a2.89,2.89,0,0,0,1.821,2.364c2.229.881,6.066,1.7,7.206-2.452,1.639-5.964.285-26.092,4.5-32.019,2.286-3.214,8.167-6.847,18.206-11.586,4.589-2.166,7.879-11.188,2.3-11.9Z" transform="translate(-664.857 -402.47)"/><path class="j" d="M1136.522,636.6l-4.669,17.9c-.4,2.128-1.125,5.231-1.65,8.875a21.339,21.339,0,0,0,4.278,16.067s1.661-8.765,3.309-12.89a142.789,142.789,0,0,0,5.26-16.061C1143.036,650.029,1136.522,636.6,1136.522,636.6Z" transform="translate(-663.104 -371.174)"/><path class="ag" d="M1145.2,615.831,1134.215,634.7c1.5,6,4.751,9.048,8.857,10.659l3.489-23.313Z" transform="translate(-664.853 -362.559)"/><path class="aq" d="M1138.482,644.168s1.764,5.213,11.616,8.584" transform="translate(-666.623 -374.312)"/><path class="ag" d="M1147.2,658.339c1.694-9.283,1.322-14.949-.21-27.764,0-17.743,5.4-24.343,16.582-20.264l4.619,1.227c13.491,7.268,20.344,6.9,17.931,21.181l-2.363,31.3C1183.754,680.13,1146.336,677.281,1147.2,658.339Z" transform="translate(-670.151 -359.786)"/><path class="g" d="M1170.255,599.143a9.568,9.568,0,0,0,2.657,1.817c.891.185,10.483-7.565,7.012-16.254-2.2-5.5-12.6-1.193-12.6-1.193Z" transform="translate(-678.587 -348.488)"/><path class="j" d="M1173.369,612.389l-.537.091a3.352,3.352,0,0,1-3.854-2.735l-1.735-10.216a3.352,3.352,0,0,1,2.734-3.854l.537-.091a3.351,3.351,0,0,1,3.854,2.735l3.11,9.571C1177.786,609.7,1175.18,612.081,1173.369,612.389Z" transform="translate(-678.533 -354.142)"/><path class="k" d="M1169.273,611.2a9.148,9.148,0,0,0,7.249-4.109s-2.762,6.417-6.764,6.966Z" transform="translate(-679.395 -358.934)"/><ellipse class="j" cx="5.906" cy="10.419" rx="5.906" ry="10.419" transform="translate(479.417 232.923) rotate(-11.597)"/><path class="j" d="M1173.69,591.559c-1.018,4.88-6.013,6.987-9.254,4.09s-5.045-9.2-4.027-14.08,4.471-6.487,7.713-3.59S1174.708,586.679,1173.69,591.559Z" transform="translate(-675.6 -346.261)"/><path class="g" d="M1166.764,580.035s.5,9.231,8.018,10.05c0,0,7.3-6.042-.111-13.758-6.537-6.8-13.946.465-13.946.465Z" transform="translate(-675.849 -344.968)"/><path class="ar" d="M1154.356,586.378a8.767,8.767,0,0,1,6.887-4.142l-3.164-3.055S1154.119,579.161,1154.356,586.378Z" transform="translate(-673.203 -347.358)"/><path class="g" d="M1166.66,584.066c-2.045-1.962-5.692-1.183-10.588,1.737-4.785,1.115-6.393-4.306-6.393-4.306-1.267-2.82.46-4.482,3.28-5.748l7.344-3.3c4.151-1.891,8.966.97,10.232,3.789l.283.452C1172.084,579.512,1169.48,582.8,1166.66,584.066Z" transform="translate(-671.092 -344.314)"/><path class="j" d="M1182.591,602.206a2.195,2.195,0,1,1-1.7-2.6A2.195,2.195,0,0,1,1182.591,602.206Z" transform="translate(-683.117 -355.811)"/><path class="n" d="M1168.369,613.867s-3.708,5.177,1.522,7.4c8.285,3.525,10.858-5.854,9.567-6.4l-2.616-1.351a3.53,3.53,0,0,1-.829,4.8c-1.948,1.641-5.449,1.993-6.953-.574Z" transform="translate(-678.491 -361.601)"/><path class="as" d="M1193.374,645.763v30.388l5.61-3.292Z" transform="translate(-689.391 -374.974)"/><path class="l" d="M1160.111,709.491l-2.592-.914-.3-.305-.195-.347-19.53-10.156a1,1,0,0,0-.865.035l-7.457,4.372-.013-.122-1.406.562.063.58h.01a.328.328,0,0,0,.156.15l20.323,10.567a.114.114,0,0,1,.053.079c.425,1.556,1.134,2.949,2.462,2.14l8.257-4.866a1.982,1.982,0,0,0,1.039-1.777Z" transform="translate(-662.171 -396.51)"/><path class="m" d="M1147.559,714.932l-23.4-12.169c-.271-.141-.266-.389.012-.552l9.945-5.832a1.153,1.153,0,0,1,1-.039l23.4,12.169c.271.141.266.389-.012.552l-9.945,5.831A1.15,1.15,0,0,1,1147.559,714.932Z" transform="translate(-660.599 -395.912)"/><path class="l" d="M1161.359,711.578l-5.664-2.945c-.066-.034-.065-.094,0-.133l2.407-1.411a.279.279,0,0,1,.241-.009l5.664,2.945c.065.034.064.094,0,.133l-2.407,1.411A.277.277,0,0,1,1161.359,711.578Z" transform="translate(-673.743 -400.396)"/><path class="n" d="M1142.608,695.233a2.653,2.653,0,0,0-1.177-1.468l-23.214-11.893a.593.593,0,0,0-.493-.074h0l0,0a.271.271,0,0,0-.1.084l-.647.727.654-.056,3.483,12.86a2.656,2.656,0,0,0,1.177,1.468l21.95,11.245.747.719.1.176c.429.087,1.359-.594,1.359-.594Z" transform="translate(-657.701 -389.909)"/><path class="v" d="M1144.72,710.1s-24.241-12.806-24.391-13.361l-3.521-13c-.15-.555.133-.8.633-.541l23.214,11.893a2.65,2.65,0,0,1,1.176,1.468l3.521,13C1145.5,710.116,1145.219,710.358,1144.72,710.1Z" transform="translate(-657.617 -390.459)"/><path class="n" d="M1139.758,706c.187.691-.452.846-1.428.346a4.433,4.433,0,0,1-2.106-2.156c-.187-.691.453-.846,1.429-.345A4.425,4.425,0,0,1,1139.758,706Z" transform="translate(-665.673 -398.941)"/><path class="j" d="M1181.335,645.763,1184.41,673c.119,1.457-22.274,8.635-22.274,8.635l1.885,7.891,22.9-5.862c6.054-2.538,5.9-7.169,5.827-10.972l-.424-23.6Z" transform="translate(-676.434 -374.974)"/><path class="ag" d="M1193.607,639.951l1.931,20.173c.57,1.67,15.638-1.774,15.044-4.269-.1-.44-1.657-24.613-8.42-30.135C1196.67,621.236,1192.269,630.647,1193.607,639.951Z" transform="translate(-689.387 -366.183)"/><path class="aq" d="M1197.005,673.311s6.243,1.619,13.979-4.066" transform="translate(-690.897 -384.714)"/><path class="at" d="M1292.208,172.981a4.467,4.467,0,1,1-4.467-4.466A4.466,4.466,0,0,1,1292.208,172.981Z" transform="translate(-726.679 -177.027)"/><circle class="au" cx="9.936" cy="9.936" r="9.936" transform="translate(626.096 396.887) rotate(-45)"/><path class="av" d="M1390.077,253.64a15.322,15.322,0,0,1,6.875,11.729l5.605-3.1c-1.5-6.238-5.364-12.09-10.676-15.289s-10.817-2.989-14.8-.056l2.589,8.036C1382.076,251.97,1386.162,251.282,1390.077,253.64Z" transform="translate(-765.586 -208.606)"/><path class="av" d="M1369.382,223.1l2.446,7.595c5.153-3.07,11.864-3.022,18.365.894s11.351,10.83,13.628,18.375l5.3-2.931c-.324-.936-.685-1.86-1.069-2.776-3.345-7.981-8.937-15.043-16.054-19.329C1384.065,220.155,1375.883,219.806,1369.382,223.1Z" transform="translate(-762.393 -198.769)"/><path class="av" d="M1387.129,275.747c.051.1.1.21.155.313.093.172.2.336.3.5.094.147.193.289.3.429s.194.256.3.379c.142.166.3.32.451.471.09.087.174.178.268.257a6.037,6.037,0,0,0,.826.609,5.145,5.145,0,0,0,.879.418c.1.039.207.061.312.092a4.386,4.386,0,0,0,.544.128c.133.02.262.03.391.037a3.767,3.767,0,0,0,.414,0,3.533,3.533,0,0,0,.449-.048c.088-.016.172-.042.258-.064a3.59,3.59,0,0,0,2.164-1.64v0h0a4.525,4.525,0,0,0,.275-.509,4.3,4.3,0,0,0,.288-.753,5.906,5.906,0,0,0,.186-1.086,7.554,7.554,0,0,0-3.393-6.787c-2.219-1.337-4.544-.7-5.6,1.369a5,5,0,0,0-.373.973,5.144,5.144,0,0,0-.143.84c-.025.215-.035.432-.039.65h0a7.076,7.076,0,0,0,.127,1.363A7.853,7.853,0,0,0,1387.129,275.747Z" transform="translate(-769.425 -218.202)"/><path class="aw" d="M1029.975,867.1c-11.657-6.991-30.742-7.308-42.626-.708s-12.067,17.618-.41,24.61,30.534,7.314,42.638.847C1042.883,884.738,1041.633,874.087,1029.975,867.1Z" transform="translate(-600.191 -464.512)"/><path class="ax" d="M1022.8,863.171c-11.071-6.64-29.2-6.941-40.482-.672s-11.461,16.733-.389,23.372,29,6.946,40.493.8C1035.057,879.926,1033.87,869.811,1022.8,863.171Z" transform="translate(-598.292 -462.998)"/><path class="ay" d="M1022.136,848.209c-11.071-6.639-29.2-6.941-40.483-.672s-11.46,16.732-.389,23.372,29,6.945,40.493.8C1034.394,864.964,1033.208,854.849,1022.136,848.209Z" transform="translate(-598.017 -456.792)"/><path class="az" d="M1012.091,857.017l-4.621,10.823,26.7-3.363" transform="translate(-612.284 -462.595)"/><path class="ao" d="M1049.624,534.443l-47.1-27.192c-7.918-4.32-17.862-1.836-20.887-.09l-16.89,9.751-.021-.03-14.851,3.163a2.014,2.014,0,0,0-.141,3.9l24.828,7.2-.144-.209,43.527,25.131c4.323,2.3,11.312,1.7,14.336-.051l17.109-9.878C1053.543,543.7,1054.77,537.1,1049.624,534.443Z" transform="translate(-587.734 -316.527)"/><path class="c" d="M711.677,444.514a10.431,10.431,0,0,1,4.829-9.24l47.164-28.037c2.583-1.536,4.74.341,4.8,4.169l.492,34.311a9.671,9.671,0,0,1-4.478,8.568l-43.321,25.753c-3.954,2.351-8.987-1.056-9.061-6.131Z" transform="translate(-489.598 -275.819)"/><ellipse class="n" cx="15.765" cy="8.833" rx="15.765" ry="8.833" transform="matrix(0.411, -0.912, 0.912, 0.411, 224.517, 185.507)"/><path class="ag" d="M741.454,479.076a2.245,2.245,0,0,0,.927-2.077c-.155-1.807-1.1-2.529-1.79-2.557-.278-.011-.564.06-.849.06-.157,0-.318,0-.476.012h0l-.015,0a2.571,2.571,0,0,0-.37.049l-.045.009,0,.006-.184.029,0,0-.2-.112c-.019-.01-.088-.074-.094-.048,0-.037.005-.1.006-.129q.012-.557.026-1.114c0-.006,0-.008,0-.013a4.378,4.378,0,0,0,.376-.953,5.065,5.065,0,0,0,.132-.722c.425-.3.55-1.1.608-1.639.047-.429.125-1.478-.324-1.185.009-.064.018-.126.027-.183a7.28,7.28,0,0,0,.12-1.069,1.739,1.739,0,0,0-.162-.866c-.04-.07-.1-.128-.18-.087a.957.957,0,0,0,.047-.308.768.768,0,0,0-.981-.84,3.013,3.013,0,0,0-1.737.878,5.573,5.573,0,0,0-1.387,2.514,1.392,1.392,0,0,0-.054.393,1.025,1.025,0,0,0-.115.245,3.264,3.264,0,0,0-.167,1.074,4.729,4.729,0,0,0,.114.921c.009.046.018.1.027.153-.363.323-.313,1.2-.278,1.547.05.49.164,1.181.633.87a1.416,1.416,0,0,0,.531,1.077l-.025,1.084c0,.051,0,.113,0,.17-.017.032-.055.078-.073.1l-.31.447-.695.83h0l-.345.393c-.344.393-.7.8-.972,1.087a5.683,5.683,0,0,0-.808,1h0a10.348,10.348,0,0,0-.81,2.589c-.239,1.134.888,2.08,1.788,1.507Zm-6.892-5.905c0-.033-.009-.076-.015-.123C734.552,473.091,734.558,473.133,734.562,473.171Z" transform="translate(-497.84 -300.137)"/><path class="n" d="M767.163,450.023l14.5-9.056.087,5.5-14.5,9.056Z" transform="translate(-512.612 -290.031)"/><path class="n" d="M789.752,451.751l.087,5.5-22,13.741-.087-5.5Z" transform="translate(-512.857 -294.504)"/><ellipse class="ba" cx="19.841" cy="11.429" rx="19.841" ry="11.429" transform="translate(220.254 188.782) rotate(-66.011)"/><path class="c" d="M948.74,513.266V500.377L1028.9,527l24.439-7.145V531.3l-24.75,10.146s-27.357-9.829-27.388-10.362S966.156,514.3,966.156,514.3Z" transform="translate(-587.925 -314.672)"/><path class="c" d="M1049.846,523.61l-47.1-27.193c-7.919-4.319-17.863-1.835-20.888-.089l-16.89,9.751-.02-.03L950.1,509.213a2.014,2.014,0,0,0-.142,3.9l24.828,7.2-.144-.209,43.527,25.13c4.324,2.3,11.311,1.7,14.336-.05l17.108-9.878C1053.766,532.866,1054.993,526.267,1049.846,523.61Z" transform="translate(-587.827 -312.034)"/><path class="n" d="M1026.777,522.531l-55.752-32.188c-2.619-1.512-2.288-4.178.737-5.924l18.706-10.8c3.025-1.746,12.969-4.23,20.888.09l47.1,27.192c5.146,2.658,3.92,9.257-.233,11.7l-17.108,9.878C1038.089,524.227,1031.1,524.836,1026.777,522.531Z" transform="translate(-596.435 -302.615)"/><path class="ah" d="M1024.508,494.61l-2.817-1.524,4.031.1.049-2.038-4.031-.1,2.885-1.376-2.8-1.515-2.886,1.377.048-2.051-4.007-.1-.048,2.05-2.817-1.524-2.868,1.368,2.817,1.524-4.033-.1-.048,2.038,4.034.1-2.887,1.377,2.8,1.515,2.886-1.377-.049,2.051,4.007.1.048-2.051,2.818,1.524Z" transform="translate(-612.497 -309.282)"/><path class="ah" d="M1054.287,511.291l-2.817-1.524,4.031.1.049-2.038-4.031-.1,2.885-1.376-2.8-1.515-2.886,1.377.048-2.051-4.007-.1-.048,2.05-2.817-1.524-2.868,1.368,2.817,1.524-4.033-.1-.048,2.038,4.034.1-2.887,1.377,2.8,1.515,2.886-1.377-.049,2.051,4.007.1.048-2.051,2.818,1.524Z" transform="translate(-624.848 -316.2)"/><path class="ah" d="M1084.067,527.972l-2.817-1.524,4.031.1.049-2.038-4.031-.1,2.885-1.376-2.8-1.515L1078.5,522.9l.048-2.051-4.007-.1-.048,2.05-2.817-1.524-2.868,1.368,2.817,1.524-4.033-.1-.048,2.038,4.034.1-2.887,1.377,2.8,1.515,2.886-1.377-.049,2.051,4.007.1.048-2.051,2.818,1.524Z" transform="translate(-637.2 -323.119)"/><path class="n" d="M964.95,491.869,950.1,495.032a2.014,2.014,0,0,0-.142,3.9l24.828,7.2Z" transform="translate(-587.827 -311.144)"/><path class="ao" d="M740.792,612.911a5.864,5.864,0,0,0,5.306.009c1.29-.745,3.507-.212,3.512.845.007,1.2,1.692,2.169,3.764,2.173l1.066,0c.039,0,.077,0,.115,0,.278-.028.557-.049.836-.068,1.609-.241,2.794-1.082,2.789-2.089h0c-.006-1.056,2.2-1.582,3.5-.832h0a5.864,5.864,0,0,0,5.306.009l.751-.434a2.694,2.694,0,0,0,.692-.555c-1.932.149-3.949-.679-3.956-1.988h0a3.377,3.377,0,0,0-2.191-2.755,6.49,6.49,0,0,1-1.834,1.523,14.667,14.667,0,0,1-10.4,1.077c0,.043-.01.085-.01.128h0c.01,1.781-3.713,2.665-5.9,1.4A9.434,9.434,0,0,0,739.1,610.3c-.4.743-.084,1.587.939,2.178Z" transform="translate(-500.902 -358.99)"/><circle class="bb" cx="5.581" cy="5.581" r="5.581" transform="translate(341.382 444.885)"/><path class="bc" d="M1400.655,124.335a6.207,6.207,0,1,1-6.207-6.207A6.206,6.206,0,0,1,1400.655,124.335Z" transform="translate(-770.216 -156.128)"/></g></g></svg>