<svg xmlns="http://www.w3.org/2000/svg" width="32" height="32" viewBox="0 0 32 32"><defs><style>.a{fill:#4589ff;}.b{fill:#fff;}.c{fill:none;}</style></defs><g transform="translate(-1049 -380)"><circle class="a" cx="16" cy="16" r="16" transform="translate(1049 380)"/><g transform="translate(1054 386)"><path class="b" d="M18.438,2H6.625A1.313,1.313,0,0,0,5.313,3.313V5.938H4V7.25H5.313v3.281H4v1.313H5.313v3.281H4v1.313H5.313v2.625a1.313,1.313,0,0,0,1.312,1.313H18.438a1.313,1.313,0,0,0,1.313-1.312V3.313A1.313,1.313,0,0,0,18.438,2Zm0,17.063H6.625V16.438H7.938V15.125H6.625V11.844H7.938V10.531H6.625V7.25H7.938V5.938H6.625V3.313H18.438Z" transform="translate(-1.375 -0.688)"/><rect class="b" width="5" height="2" transform="translate(9 6)"/><rect class="b" width="5" height="2" transform="translate(9 10)"/><rect class="b" width="5" height="2" transform="translate(9 14)"/><rect class="c" width="21" height="21"/></g></g></svg>