<svg xmlns="http://www.w3.org/2000/svg" width="65" height="65" viewBox="0 0 65 65"><defs><style>.a{opacity:0.8;}.b{fill:#fff;}.c{fill:none;}</style></defs><g class="a"><path class="b" d="M58.869,36.528H50.745V28.4H46.683V46.683h-32.5v-32.5l18.279,0v-4.06H24.342V2H20.279v8.124H14.186a4.066,4.066,0,0,0-4.062,4.062v6.093H2v4.062h8.124V36.528H2V40.59h8.124v6.093a4.067,4.067,0,0,0,4.062,4.062h6.093v8.124h4.062V50.745H36.528v8.124H40.59V50.745h6.093a4.068,4.068,0,0,0,4.062-4.062V40.59h8.124Z" transform="translate(2.062 2.062)"/><path class="b" d="M31.311,31.311H11V11H31.311ZM15.062,27.248H27.248V15.062H15.062Z" transform="translate(11.342 11.342)"/><path class="b" d="M43.373,25.373H39.311A20.334,20.334,0,0,0,19,5.062V1A24.4,24.4,0,0,1,43.373,25.373Z" transform="translate(19.59 1.031)"/><path class="b" d="M33.217,20.217H29.155A10.167,10.167,0,0,0,19,10.062V6A14.235,14.235,0,0,1,33.217,20.217Z" transform="translate(19.59 6.186)"/><rect class="c" width="65" height="65"/></g></svg>
