<svg xmlns="http://www.w3.org/2000/svg" xmlns:xlink="http://www.w3.org/1999/xlink" width="249" height="155" viewBox="0 0 249 155"><defs><style>.a{fill:url(#a);}.b{clip-path:url(#d);}.c{fill:#fff;opacity:0.1;}.d{filter:url(#b);}</style><linearGradient id="a" y1="0.5" x2="1" y2="0.5" gradientUnits="objectBoundingBox"><stop offset="0" stop-color="#d02670"/><stop offset="1" stop-color="#9f1853"/></linearGradient><filter id="b" x="-6" y="-4" width="261" height="167" filterUnits="userSpaceOnUse"><feOffset dy="2" input="SourceAlpha"/><feGaussianBlur stdDeviation="2" result="c"/><feFlood flood-opacity="0.114"/><feComposite operator="in" in2="c"/><feComposite in="SourceGraphic"/></filter><clipPath id="d"><g class="d" transform="matrix(1, 0, 0, 1, 0, 0)"><rect class="a" width="249" height="155" rx="9" transform="translate(-72.69 30)"/></g></clipPath></defs><g class="b" transform="translate(72.688 -30)"><path class="c" d="M141.7,90.765H108.409a11.108,11.108,0,0,0-11.1,11.1v11.1H66.324L41.835,88.468V57.478h11.1a11.108,11.108,0,0,0,11.1-11.1V13.1A11.108,11.108,0,0,0,52.931,2H19.644a11.108,11.108,0,0,0-11.1,11.1V46.383a11.108,11.108,0,0,0,11.1,11.1h11.1v30.99L4.626,114.582a5.545,5.545,0,0,0,0,7.845l27.739,27.739a5.545,5.545,0,0,0,7.845,0l26.114-26.114h30.99v11.1a11.108,11.108,0,0,0,11.1,11.1H141.7a11.108,11.108,0,0,0,11.1-11.1V101.861a11.108,11.108,0,0,0-11.1-11.1ZM19.644,13.1H52.931V46.383H19.644ZM36.287,138.4,16.393,118.5,36.287,98.611,56.181,118.5Zm72.122-3.25V101.861H141.7v33.287Z" transform="translate(48.812 11.208)"/></g></svg>