<svg xmlns="http://www.w3.org/2000/svg" xmlns:xlink="http://www.w3.org/1999/xlink" width="261" height="167" viewBox="0 0 261 167"><defs><style>.a{fill:url(#a);}.b{fill:url(#d);}.c{fill:#fff;}.d{fill:#7e39e7;}.e{opacity:0.1;clip-path:url(#g);}.f{fill:#5825a6;}.g{filter:url(#e);}.h{filter:url(#b);}</style><linearGradient id="a" y1="0.5" x2="1" y2="0.5" gradientUnits="objectBoundingBox"><stop offset="0" stop-color="#d02670"/><stop offset="1" stop-color="#9f1853"/></linearGradient><filter id="b" x="0" y="0" width="261" height="167" filterUnits="userSpaceOnUse"><feOffset dy="2" input="SourceAlpha"/><feGaussianBlur stdDeviation="2" result="c"/><feFlood flood-opacity="0.114"/><feComposite operator="in" in2="c"/><feComposite in="SourceGraphic"/></filter><linearGradient id="d" y1="0.5" x2="1" y2="0.5" gradientUnits="objectBoundingBox"><stop offset="0" stop-color="#8a3ffc"/><stop offset="1" stop-color="#491d8b"/></linearGradient><filter id="e" x="0" y="0" width="261" height="167" filterUnits="userSpaceOnUse"><feOffset dy="2" input="SourceAlpha"/><feGaussianBlur stdDeviation="2" result="f"/><feFlood flood-opacity="0.114"/><feComposite operator="in" in2="f"/><feComposite in="SourceGraphic"/></filter><clipPath id="g"><g class="h" transform="matrix(1, 0, 0, 1, 0, 0)"><rect class="a" width="249" height="155" rx="9" transform="translate(-203.63 -43.71)"/></g></clipPath></defs><g transform="translate(78.688 -26)"><g class="g" transform="matrix(1, 0, 0, 1, -78.69, 26)"><rect class="b" width="249" height="155" rx="9" transform="translate(6 4)"/></g><g transform="translate(-49.688 55.812)"><path class="c" d="M44.71,27.363V24.731l3.3-2.89a3.441,3.441,0,0,0,.654-4.387l-4.06-6.881A3.472,3.472,0,0,0,40.53,9.025l-4.18,1.411A19.526,19.526,0,0,0,34.1,9.145L33.219,4.81a3.441,3.441,0,0,0-3.441-2.77H21.727a3.441,3.441,0,0,0-3.441,2.77l-.877,4.335a19.749,19.749,0,0,0-2.271,1.29L11.044,8.956a3.441,3.441,0,0,0-1.1-.1,3.441,3.441,0,0,0-2.976,1.72l-4.06,6.881a3.441,3.441,0,0,0,.705,4.318l3.251,2.976V27.38L3.612,30.27a3.441,3.441,0,0,0-.705,4.387l4.06,6.881a3.472,3.472,0,0,0,4.077,1.548l4.18-1.411a19.526,19.526,0,0,0,2.254,1.29l.877,4.335a3.441,3.441,0,0,0,3.441,2.77h8.12a3.441,3.441,0,0,0,3.441-2.77l.877-4.335a19.749,19.749,0,0,0,2.271-1.29l4.163,1.411a3.472,3.472,0,0,0,4.077-1.548l3.922-6.881a3.441,3.441,0,0,0-.705-4.318ZM41.631,39.818l-5.9-2a15.242,15.242,0,0,1-4.662,2.7L29.847,46.7h-8.12l-1.221-6.107a16.1,16.1,0,0,1-4.645-2.7L9.943,39.818l-4.06-6.881,4.679-4.129a15.311,15.311,0,0,1,0-5.385L5.883,19.174l4.06-6.881,5.9,2a15.242,15.242,0,0,1,4.662-2.7l1.221-6.176h8.12l1.221,6.107a16.1,16.1,0,0,1,4.645,2.7l5.918-1.927,4.06,6.881L41.012,23.3a15.31,15.31,0,0,1,0,5.385l4.679,4.249Z" transform="translate(-2.413 -2.04)"/><path class="c" d="M20.322,30.644A10.322,10.322,0,1,1,30.644,20.322,10.219,10.219,0,0,1,20.322,30.644Zm0-17.2a6.726,6.726,0,0,0-6.881,6.881A6.726,6.726,0,0,0,20.322,27.2,6.726,6.726,0,0,0,27.2,20.322a6.726,6.726,0,0,0-6.881-6.881Z" transform="translate(3.052 3.694)"/></g><circle class="d" cx="16.5" cy="16.5" r="16.5" transform="translate(-23.688 77)"/><g transform="translate(-17.75 78.94)"><path class="c" d="M34.921,21.5V19.479l2.539-2.221a2.644,2.644,0,0,0,.5-3.372L34.842,8.6a2.668,2.668,0,0,0-3.134-1.19L28.5,8.492A15.007,15.007,0,0,0,26.763,7.5l-.674-3.332A2.644,2.644,0,0,0,23.445,2.04H17.257a2.644,2.644,0,0,0-2.644,2.129L13.938,7.5a15.178,15.178,0,0,0-1.745.992L9.046,7.355A2.644,2.644,0,0,0,8.2,7.276,2.644,2.644,0,0,0,5.913,8.6l-3.12,5.289a2.644,2.644,0,0,0,.542,3.319l2.5,2.287v2.023l-2.5,2.221a2.644,2.644,0,0,0-.542,3.372L5.913,32.4a2.668,2.668,0,0,0,3.134,1.19L12.259,32.5a15.007,15.007,0,0,0,1.732.992l.674,3.332a2.644,2.644,0,0,0,2.644,2.129h6.241a2.644,2.644,0,0,0,2.644-2.129l.674-3.332a15.178,15.178,0,0,0,1.745-.992l3.2,1.084a2.668,2.668,0,0,0,3.134-1.19l3.015-5.289a2.644,2.644,0,0,0-.542-3.319Zm-2.367,9.572-4.535-1.534a11.715,11.715,0,0,1-3.583,2.076L23.5,36.363H17.257l-.939-4.694a12.376,12.376,0,0,1-3.57-2.076L8.2,31.075,5.08,25.786l3.6-3.173a11.767,11.767,0,0,1,0-4.138l-3.6-3.266L8.2,9.92l4.535,1.534a11.714,11.714,0,0,1,3.583-2.076l.939-4.747H23.5l.939,4.694a12.375,12.375,0,0,1,3.57,2.076L32.554,9.92l3.12,5.289-3.6,3.173a11.767,11.767,0,0,1,0,4.138l3.6,3.266Z" transform="translate(-2.413 -2.04)"/><path class="c" d="M17.933,25.866a7.933,7.933,0,1,1,7.933-7.933,7.854,7.854,0,0,1-7.933,7.933Zm0-13.222a5.17,5.17,0,0,0-5.289,5.289,5.17,5.17,0,0,0,5.289,5.289,5.17,5.17,0,0,0,5.289-5.289,5.17,5.17,0,0,0-5.289-5.289Z" transform="translate(0.031 0.525)"/></g><g class="e" transform="translate(130.947 73.708)"><path class="c" d="M33.474,56.949A23.474,23.474,0,1,1,56.949,33.474,23.24,23.24,0,0,1,33.474,56.949Zm0-39.124a15.3,15.3,0,0,0-15.65,15.65,15.3,15.3,0,0,0,15.65,15.65,15.3,15.3,0,0,0,15.65-15.65,15.3,15.3,0,0,0-15.65-15.65Z" transform="translate(-52.951 -31.453)"/><path class="c" d="M98.608,59.631V53.645l7.512-6.573a7.825,7.825,0,0,0,1.487-9.977l-9.233-15.65A7.9,7.9,0,0,0,89.1,17.925l-9.507,3.208A44.406,44.406,0,0,0,74.468,18.2l-2-9.859a7.825,7.825,0,0,0-7.825-6.3H46.338a7.825,7.825,0,0,0-7.825,6.3l-2,9.859a44.913,44.913,0,0,0-5.164,2.934l-9.311-3.365a7.825,7.825,0,0,0-2.5-.235,7.825,7.825,0,0,0-6.768,3.912L3.537,37.1a7.825,7.825,0,0,0,1.6,9.82l7.394,6.768V59.67L5.141,66.243a7.825,7.825,0,0,0-1.6,9.977l9.233,15.65a7.9,7.9,0,0,0,9.272,3.521l9.507-3.208a44.405,44.405,0,0,0,5.125,2.934l2,9.859a7.825,7.825,0,0,0,7.825,6.3H64.961a7.825,7.825,0,0,0,7.825-6.3l2-9.859a44.914,44.914,0,0,0,5.164-2.934l9.468,3.208a7.9,7.9,0,0,0,9.272-3.521l8.92-15.65A7.825,7.825,0,0,0,106,66.4Zm-7,28.326L78.185,83.419a34.664,34.664,0,0,1-10.6,6.142L64.8,103.607H46.338L43.56,89.718A36.62,36.62,0,0,1,33,83.575L19.538,87.957l-9.233-15.65,10.642-9.39a34.82,34.82,0,0,1,0-12.246L10.305,41.008l9.233-15.65L32.958,29.9a34.664,34.664,0,0,1,10.6-6.142L46.338,9.709H64.8L67.582,23.6a36.62,36.62,0,0,1,10.563,6.142L91.6,25.359l9.233,15.65L90.2,50.4a34.82,34.82,0,0,1,0,12.246l10.642,9.664Z" transform="translate(-75.049 -54.637)"/><circle class="f" cx="37.105" cy="37.105" r="37.105" transform="translate(-13.042 -4.037)"/><path class="c" d="M28.042,46.083A18.042,18.042,0,1,1,46.083,28.042,17.861,17.861,0,0,1,28.042,46.083Zm0-30.069A11.757,11.757,0,0,0,16.014,28.042,11.757,11.757,0,0,0,28.042,40.069,11.757,11.757,0,0,0,40.069,28.042,11.757,11.757,0,0,0,28.042,16.014Z" transform="translate(12.814 13.936)"/><path class="c" d="M76.345,46.3V41.7l5.773-5.052a6.014,6.014,0,0,0,1.143-7.668l-7.1-12.028a6.068,6.068,0,0,0-7.126-2.706l-7.307,2.466a34.13,34.13,0,0,0-3.939-2.255L56.259,6.882a6.014,6.014,0,0,0-6.014-4.841H36.172a6.014,6.014,0,0,0-6.014,4.841l-1.534,7.577a34.519,34.519,0,0,0-3.969,2.255L17.5,14.129a6.014,6.014,0,0,0-1.924-.18,6.014,6.014,0,0,0-5.2,3.007l-7.1,12.028A6.014,6.014,0,0,0,4.509,36.53l5.683,5.2v4.6L4.509,51.384a6.014,6.014,0,0,0-1.233,7.668l7.1,12.028A6.068,6.068,0,0,0,17.5,73.786l7.307-2.466a34.128,34.128,0,0,0,3.939,2.255l1.534,7.577a6.014,6.014,0,0,0,6.014,4.841H50.485A6.014,6.014,0,0,0,56.5,81.153l1.534-7.577A34.519,34.519,0,0,0,62,71.32l7.277,2.466a6.068,6.068,0,0,0,7.126-2.706l6.856-12.028A6.014,6.014,0,0,0,82.028,51.5Zm-5.382,21.77L60.649,64.585A26.642,26.642,0,0,1,52.5,69.306L50.365,80.1H36.172L34.037,69.426a28.145,28.145,0,0,1-8.119-4.721L15.575,68.073l-7.1-12.028,8.179-7.217a26.761,26.761,0,0,1,0-9.412L8.478,31.99l7.1-12.028L25.889,23.45a26.641,26.641,0,0,1,8.149-4.721L36.172,7.934H50.365L52.5,18.609a28.145,28.145,0,0,1,8.119,4.721l10.344-3.368,7.1,12.028L69.88,39.206a26.762,26.762,0,0,1,0,9.412l8.179,7.427Z" transform="translate(-2.413 -2.04)"/></g></g></svg>