<svg xmlns="http://www.w3.org/2000/svg" xmlns:xlink="http://www.w3.org/1999/xlink" width="261" height="167" viewBox="0 0 261 167"><defs><style>.a{fill:url(#a);}.b{fill:url(#d);}.c{opacity:0.12;clip-path:url(#g);}.d{fill:#fff;}.e{filter:url(#e);}.f{filter:url(#b);}</style><linearGradient id="a" y1="0.5" x2="1" y2="0.5" gradientUnits="objectBoundingBox"><stop offset="0" stop-color="#d02670"/><stop offset="1" stop-color="#9f1853"/></linearGradient><filter id="b" x="0" y="0" width="261" height="167" filterUnits="userSpaceOnUse"><feOffset dy="2" input="SourceAlpha"/><feGaussianBlur stdDeviation="2" result="c"/><feFlood flood-opacity="0.114"/><feComposite operator="in" in2="c"/><feComposite in="SourceGraphic"/></filter><linearGradient id="d" y1="0.5" x2="1" y2="0.5" gradientUnits="objectBoundingBox"><stop offset="0" stop-color="#08bdba"/><stop offset="1" stop-color="#005d5d"/></linearGradient><filter id="e" x="0" y="0" width="261" height="167" filterUnits="userSpaceOnUse"><feOffset dy="2" input="SourceAlpha"/><feGaussianBlur stdDeviation="2" result="f"/><feFlood flood-opacity="0.114"/><feComposite operator="in" in2="f"/><feComposite in="SourceGraphic"/></filter><clipPath id="g"><g class="f" transform="matrix(1, 0, 0, 1, 0, 0)"><rect class="a" width="249" height="155" rx="9" transform="translate(-171.18 -2.93)"/></g></clipPath></defs><g transform="translate(4 -37)"><g class="e" transform="matrix(1, 0, 0, 1, -4, 37)"><rect class="b" width="249" height="155" rx="9" transform="translate(6 4)"/></g><g class="c" transform="translate(173.185 43.933)"><path class="d" d="M133.842,4H12.142A10.142,10.142,0,0,0,2,14.142V95.275a10.142,10.142,0,0,0,10.142,10.142H52.708V125.7H32.425v10.142h70.007V125.7H93.275V105.417h40.567a10.142,10.142,0,0,0,10.142-10.142V14.142A10.142,10.142,0,0,0,133.842,4ZM83.134,125.7H62.85V105.417H83.134Zm50.708-30.425H12.142V14.142h121.7V95.275Z" transform="translate(-47.716 -17.996)"/><path class="d" d="M54.552,41.276H47.33V34.054A10.844,10.844,0,0,0,36.5,23.222H22.054A10.844,10.844,0,0,0,11.222,34.054v7.222H4V34.054A18.076,18.076,0,0,1,22.054,16H36.5A18.076,18.076,0,0,1,54.552,34.054Z" transform="translate(-4 27.33)"/><path class="d" d="M24.054,11.222A10.833,10.833,0,1,1,13.222,22.054,10.833,10.833,0,0,1,24.054,11.222m0-7.222A18.054,18.054,0,1,0,42.108,22.054,18.054,18.054,0,0,0,24.054,4Z" transform="translate(1.222 -4)"/></g><g transform="translate(38 60)"><path class="d" d="M52.639,4H5.9A3.9,3.9,0,0,0,2,7.9V39.058a3.9,3.9,0,0,0,3.9,3.9H21.477v7.791H13.686v3.9H40.575v-3.9H37.058V42.953H52.639a3.9,3.9,0,0,0,3.9-3.9V7.9A3.9,3.9,0,0,0,52.639,4ZM33.163,50.744H25.372V42.953h7.791ZM52.639,39.058H5.9V7.9H52.639V39.058Z" transform="translate(-14.531 10.938)"/><path class="d" d="M23.417,25.708H20.643V22.934a4.165,4.165,0,0,0-4.161-4.161H10.934a4.165,4.165,0,0,0-4.161,4.161v2.774H4V22.934A6.943,6.943,0,0,1,10.934,16h5.548a6.943,6.943,0,0,1,6.934,6.934Z" transform="translate(1.028 20.956)"/><path class="d" d="M12.934,6.774a4.161,4.161,0,1,1-4.161,4.161,4.161,4.161,0,0,1,4.161-4.161m0-2.774a6.934,6.934,0,1,0,6.934,6.934A6.934,6.934,0,0,0,12.934,4Z" transform="translate(1.802 16.313)"/></g></g></svg>