<svg xmlns="http://www.w3.org/2000/svg" xmlns:xlink="http://www.w3.org/1999/xlink" width="261" height="167" viewBox="0 0 261 167"><defs><style>.a{fill:url(#a);}.b{fill:#fff;}.c{fill:url(#d);}.d{clip-path:url(#g);}.e{opacity:0.1;}.f{clip-path:url(#h);}.g{clip-path:url(#i);}.h{filter:url(#e);}.i{filter:url(#b);}</style><linearGradient id="a" y1="0.5" x2="1" y2="0.5" gradientUnits="objectBoundingBox"><stop offset="0" stop-color="#d02670"/><stop offset="1" stop-color="#9f1853"/></linearGradient><filter id="b" x="0" y="0" width="261" height="167" filterUnits="userSpaceOnUse"><feOffset dy="2" input="SourceAlpha"/><feGaussianBlur stdDeviation="2" result="c"/><feFlood flood-opacity="0.114"/><feComposite operator="in" in2="c"/><feComposite in="SourceGraphic"/></filter><linearGradient id="d" y1="0.5" x2="1" y2="0.5" gradientUnits="objectBoundingBox"><stop offset="0" stop-color="#33b1ff"/><stop offset="1" stop-color="#00539a"/></linearGradient><filter id="e" x="0" y="0" width="261" height="167" filterUnits="userSpaceOnUse"><feOffset dy="2" input="SourceAlpha"/><feGaussianBlur stdDeviation="2" result="f"/><feFlood flood-opacity="0.114"/><feComposite operator="in" in2="f"/><feComposite in="SourceGraphic"/></filter><clipPath id="g"><g class="i" transform="matrix(1, 0, 0, 1, 0, 0)"><rect class="a" width="249" height="155" rx="9" transform="translate(-72.69 30)"/></g></clipPath><clipPath id="h"><path class="b" d="M-.209-4.689H106.456L104.11,54.317H66.068V145.1H-3.789V-4.689" transform="translate(3.789 4.689)"/></clipPath><clipPath id="i"><path class="b" d="M-2.351-4.689H40.492l-.942,23.7H24.27V55.476H-3.789V-4.689"/></clipPath></defs><g transform="translate(4 -37)"><g class="h" transform="matrix(1, 0, 0, 1, -4, 37)"><path class="c" d="M9,0H240a9,9,0,0,1,9,9V146a9,9,0,0,1-9,9H9a9,9,0,0,1-9-9V9A9,9,0,0,1,9,0Z" transform="translate(6 4)"/></g><g transform="translate(74.688 11)"><g class="d"><g class="e" transform="translate(84.112 38.805)"><g class="f" transform="translate(-32.299 -25.596)"><path class="b" d="M6,2V125.036a9.464,9.464,0,0,0,9.464,9.464H91.179a9.464,9.464,0,0,0,9.464-9.464V2ZM91.179,125.036H15.464V68.25H91.179Zm0-66.25H15.464V39.857H91.179ZM15.464,30.393V11.464H91.179V30.393Z" transform="translate(3.434 9.674)"/></g><path class="b" d="M56.857,22.2H52.125V17.464A9.464,9.464,0,0,0,42.661,8H23.732v9.464H42.661v14.2h14.2V60.054h-14.2v14.2H19v9.464H42.661a9.464,9.464,0,0,0,9.464-9.464V69.518h4.732a9.464,9.464,0,0,0,9.464-9.464V31.661A9.464,9.464,0,0,0,56.857,22.2Z" transform="translate(100.098 30.131)"/><path class="b" d="M37.125,74.25H13.464V17.464H41.857V8H13.464A9.464,9.464,0,0,0,4,17.464V74.25a9.464,9.464,0,0,0,9.464,9.464H37.125Z" transform="translate(44.116 30.131)"/><path class="b" d="M35.113,80.309l-7.666-5.489L45.76,49.171H9.37L41.785,8.38l7.382,5.868L28.961,39.707h35.16Z" transform="translate(64.158 31.549)"/><rect class="b" width="19.74" height="7.402" transform="translate(14.147 67.503)"/></g></g><g transform="translate(-76.688 37)"><g transform="translate(51.51 44.908)"><g class="g" transform="translate(-28.51 -20.908)"><path class="b" d="M6,2V51.418a3.8,3.8,0,0,0,3.8,3.8H40.212a3.8,3.8,0,0,0,3.8-3.8V2ZM40.212,51.418H9.8V28.61H40.212Zm0-26.61H9.8v-7.6H40.212ZM9.8,13.4V5.8H40.212v7.6Z" transform="translate(-6 -2)"/></g><path class="b" d="M34.206,13.7H32.3V11.8A3.8,3.8,0,0,0,28.5,8H20.9v3.8h7.6v5.7h5.7v11.4H28.5v5.7H19v3.8h9.5a3.8,3.8,0,0,0,3.8-3.8v-1.9h1.9a3.8,3.8,0,0,0,3.8-3.8V17.5A3.8,3.8,0,0,0,34.206,13.7Z" transform="translate(9.51 -8)"/><path class="b" d="M17.3,34.61H7.8V11.8h11.4V8H7.8A3.8,3.8,0,0,0,4,11.8V34.61a3.8,3.8,0,0,0,3.8,3.8h9.5Z" transform="translate(-4 -8)"/><path class="b" d="M19.71,37.271l-3.079-2.2,7.356-10.3H9.37L22.39,8.38l2.965,2.357L17.239,20.963H31.361Z" transform="translate(0.837 -7.658)"/><rect class="b" width="7.929" height="2.973" transform="translate(-13.644 11.798)"/></g></g></g></g></svg>