<svg xmlns="http://www.w3.org/2000/svg" xmlns:xlink="http://www.w3.org/1999/xlink" width="261" height="167" viewBox="0 0 261 167"><defs><style>.a{fill:url(#a);}.b{fill:url(#d);}.c{fill:#fff;}.d{opacity:0.1;}.e{clip-path:url(#g);}.f{filter:url(#e);}.g{filter:url(#b);}</style><linearGradient id="a" y1="0.5" x2="1" y2="0.5" gradientUnits="objectBoundingBox"><stop offset="0" stop-color="#d02670"/><stop offset="1" stop-color="#9f1853"/></linearGradient><filter id="b" x="0" y="0" width="261" height="167" filterUnits="userSpaceOnUse"><feOffset dy="2" input="SourceAlpha"/><feGaussianBlur stdDeviation="2" result="c"/><feFlood flood-opacity="0.114"/><feComposite operator="in" in2="c"/><feComposite in="SourceGraphic"/></filter><linearGradient id="d" y1="0.5" x2="1" y2="0.5" gradientUnits="objectBoundingBox"><stop offset="0" stop-color="#fa4d56"/><stop offset="1" stop-color="#a2191f"/></linearGradient><filter id="e" x="0" y="0" width="261" height="167" filterUnits="userSpaceOnUse"><feOffset dy="2" input="SourceAlpha"/><feGaussianBlur stdDeviation="2" result="f"/><feFlood flood-opacity="0.114"/><feComposite operator="in" in2="f"/><feComposite in="SourceGraphic"/></filter><clipPath id="g"><g class="g" transform="matrix(1, 0, 0, 1, 0, 0)"><rect class="a" width="249" height="155" rx="9" transform="translate(-122.91 15.64)"/></g></clipPath></defs><g transform="translate(4 -37)"><g class="f" transform="matrix(1, 0, 0, 1, -4, 37)"><rect class="b" width="249" height="155" rx="9" transform="translate(6 4)"/></g><g transform="translate(21.907 71.375)"><rect class="c" width="15" height="3" transform="translate(14 18)"/><rect class="c" width="22" height="3" transform="translate(14 11)"/><rect class="c" width="22" height="3" transform="translate(14 4)"/><path class="c" d="M6.829,48.313,16.86,30.507,30.1,42.067a3.563,3.563,0,0,0,5.493-.951L48.011,22.585,45.05,20.6,32.581,39.211l-.125.184L19.214,27.834a3.568,3.568,0,0,0-5.487.945L5.563,43.294V2H2V48.313a3.567,3.567,0,0,0,3.562,3.562H51.875V48.313Z" transform="translate(1.563 1.563)"/><g class="d" transform="translate(103 -46.015)"><rect class="c" width="38.167" height="7.633" transform="translate(30.12 40.298)"/><rect class="c" width="55.978" height="7.633" transform="translate(30.12 22.487)"/><g class="e"><path class="c" d="M14.288,119.84,39.81,74.535,73.5,103.95a9.065,9.065,0,0,0,13.976-2.42l31.593-47.152-7.534-5.045L79.813,96.683l-.317.469L45.8,67.734A9.079,9.079,0,0,0,31.838,70.14L11.065,107.071V2H2V119.84a9.075,9.075,0,0,0,9.065,9.065h117.84V119.84Z" transform="translate(1.563 1.563)"/></g></g></g></g></svg>