<svg xmlns="http://www.w3.org/2000/svg" xmlns:xlink="http://www.w3.org/1999/xlink" width="261" height="167" viewBox="0 0 261 167"><defs><style>.a{fill:url(#a);}.b{clip-path:url(#g);}.c,.d{fill:#fff;}.c{opacity:0.1;}.d{opacity:0.9;}.e{filter:url(#e);}.f{filter:url(#b);}</style><linearGradient id="a" y1="0.5" x2="1" y2="0.5" gradientUnits="objectBoundingBox"><stop offset="0" stop-color="#d02670"/><stop offset="1" stop-color="#9f1853"/></linearGradient><filter id="b" x="0" y="0" width="261" height="167" filterUnits="userSpaceOnUse"><feOffset dy="2" input="SourceAlpha"/><feGaussianBlur stdDeviation="2" result="c"/><feFlood flood-opacity="0.114"/><feComposite operator="in" in2="c"/><feComposite in="SourceGraphic"/></filter><filter id="e" x="0" y="0" width="261" height="167" filterUnits="userSpaceOnUse"><feOffset dy="2" input="SourceAlpha"/><feGaussianBlur stdDeviation="2" result="f"/><feFlood flood-opacity="0.114"/><feComposite operator="in" in2="f"/><feComposite in="SourceGraphic"/></filter><clipPath id="g"><g class="f" transform="matrix(1, 0, 0, 1, 0, 0)"><rect class="a" width="249" height="155" rx="9" transform="translate(-72.69 30)"/></g></clipPath></defs><g transform="translate(4 -37)"><g class="e" transform="matrix(1, 0, 0, 1, -4, 37)"><rect class="a" width="249" height="155" rx="9" transform="translate(6 4)"/></g><g transform="translate(74.688 11)"><g class="b"><path class="c" d="M141.7,90.765H108.409a11.108,11.108,0,0,0-11.1,11.1v11.1H66.324L41.835,88.468V57.478h11.1a11.108,11.108,0,0,0,11.1-11.1V13.1A11.108,11.108,0,0,0,52.931,2H19.644a11.108,11.108,0,0,0-11.1,11.1V46.383a11.108,11.108,0,0,0,11.1,11.1h11.1v30.99L4.626,114.582a5.545,5.545,0,0,0,0,7.845l27.739,27.739a5.545,5.545,0,0,0,7.845,0l26.114-26.114h30.99v11.1a11.108,11.108,0,0,0,11.1,11.1H141.7a11.108,11.108,0,0,0,11.1-11.1V101.861a11.108,11.108,0,0,0-11.1-11.1ZM19.644,13.1H52.931V46.383H19.644ZM36.287,138.4,16.393,118.5,36.287,98.611,56.181,118.5Zm72.122-3.25V101.861H141.7v33.287Z" transform="translate(48.812 11.208)"/></g><path class="d" d="M54.2,34.765H41.909a4.1,4.1,0,0,0-4.1,4.1v4.1H26.374l-9.039-9.039V22.478h4.1a4.1,4.1,0,0,0,4.1-4.1V6.1a4.1,4.1,0,0,0-4.1-4.1H9.144a4.1,4.1,0,0,0-4.1,4.1V18.383a4.1,4.1,0,0,0,4.1,4.1h4.1V33.917L3.6,43.557a2.047,2.047,0,0,0,0,2.9L13.839,56.692a2.047,2.047,0,0,0,2.9,0l9.639-9.639H37.813v4.1a4.1,4.1,0,0,0,4.1,4.1H54.2a4.1,4.1,0,0,0,4.1-4.1V38.861a4.1,4.1,0,0,0-4.1-4.1ZM9.144,6.1H21.431V18.383H9.144Zm6.144,46.252L7.944,45l7.343-7.343L22.63,45Zm26.622-1.2V38.861H54.2V51.148Z" transform="translate(-52.188 59.208)"/></g></g></svg>