<svg xmlns="http://www.w3.org/2000/svg" xmlns:xlink="http://www.w3.org/1999/xlink" width="261" height="167" viewBox="0 0 261 167"><defs><style>.a{fill:url(#a);}.b{fill:#fff;}.c{fill:url(#d);}.d{opacity:0.12;clip-path:url(#g);}.e{clip-path:url(#h);}.f{fill:rgba(255,255,255,0.84);}.g{clip-path:url(#i);}.h{filter:url(#e);}.i{filter:url(#b);}</style><linearGradient id="a" y1="0.5" x2="1" y2="0.5" gradientUnits="objectBoundingBox"><stop offset="0" stop-color="#d02670"/><stop offset="1" stop-color="#9f1853"/></linearGradient><filter id="b" x="0" y="0" width="261" height="167" filterUnits="userSpaceOnUse"><feOffset dy="2" input="SourceAlpha"/><feGaussianBlur stdDeviation="2" result="c"/><feFlood flood-opacity="0.114"/><feComposite operator="in" in2="c"/><feComposite in="SourceGraphic"/></filter><linearGradient id="d" y1="0.5" x2="1" y2="0.5" gradientUnits="objectBoundingBox"><stop offset="0" stop-color="#42be65"/><stop offset="1" stop-color="#0e6027"/></linearGradient><filter id="e" x="0" y="0" width="261" height="167" filterUnits="userSpaceOnUse"><feOffset dy="2" input="SourceAlpha"/><feGaussianBlur stdDeviation="2" result="f"/><feFlood flood-opacity="0.114"/><feComposite operator="in" in2="f"/><feComposite in="SourceGraphic"/></filter><clipPath id="g"><g class="i" transform="matrix(1, 0, 0, 1, 0, 0)"><rect class="a" width="249" height="155" rx="9" transform="translate(-171.18 -2.93)"/></g></clipPath><clipPath id="h"><path class="b" d="M69.236,80.451v38.875S19.372,94.763,15,151.3c-.8,10.346,13.025,21.942,18.607,26,22.091,16.122-1.561,14.634,8.136,25.222,11.869,12.96-13.586,0-13.586,0l-68.885-37.6-21.18-87.662,58.16-34.728L72.379,77.255" transform="translate(61.907 -42.527)"/></clipPath><clipPath id="i"><path class="b" d="M3.006,61.3V80.541S-21.676,68.383-23.84,96.366c-.4,5.121,6.447,10.861,9.21,12.868,10.934,7.98-.773,7.243,4.027,12.484,5.875,6.415-6.725,0-6.725,0l-34.1-18.611L-61.907,59.717l28.788-17.189L4.562,59.717"/></clipPath></defs><g transform="translate(4 -37)"><g class="h" transform="matrix(1, 0, 0, 1, -4, 37)"><rect class="c" width="249" height="155" rx="9" transform="translate(6 4)"/></g><g class="d" transform="translate(173.185 43.933)"><g transform="translate(-10.449 -63.477)"><g class="e" transform="translate(-61.907 42.527)"><g transform="translate(24.685 26.839)"><path class="f" d="M87.866,53.2V47.883l6.673-5.839a6.951,6.951,0,0,0,1.321-8.863l-8.2-13.9a7.014,7.014,0,0,0-8.237-3.128L70.975,19a39.447,39.447,0,0,0-4.553-2.607L64.65,7.636a6.951,6.951,0,0,0-6.951-5.6H41.433a6.951,6.951,0,0,0-6.951,5.6L32.71,16.395A39.9,39.9,0,0,0,28.122,19L19.85,16.012a6.951,6.951,0,0,0-2.224-.209,6.951,6.951,0,0,0-6.013,3.476l-8.2,13.9A6.951,6.951,0,0,0,4.836,41.9L11.4,47.918v5.318L4.836,59.074a6.951,6.951,0,0,0-1.425,8.863l8.2,13.9a7.014,7.014,0,0,0,8.237,3.128l8.445-2.85a39.449,39.449,0,0,0,4.553,2.607l1.773,8.758a6.951,6.951,0,0,0,6.951,5.6h16.4a6.951,6.951,0,0,0,6.951-5.6L66.7,84.723a39.9,39.9,0,0,0,4.588-2.607l8.411,2.85a7.014,7.014,0,0,0,8.237-3.128l7.924-13.9a6.951,6.951,0,0,0-1.425-8.723ZM81.645,78.363,69.724,74.331a30.793,30.793,0,0,1-9.419,5.457L57.838,92.265h-16.4L38.966,79.927a32.531,32.531,0,0,1-9.384-5.457L17.626,78.363l-8.2-13.9,9.453-8.341a30.932,30.932,0,0,1,0-10.878L9.424,36.657l8.2-13.9,11.921,4.032a30.793,30.793,0,0,1,9.419-5.457L41.433,8.853h16.4l2.468,12.338a32.531,32.531,0,0,1,9.384,5.457l11.956-3.893,8.2,13.9L80.394,45a30.931,30.931,0,0,1,0,10.878l9.453,8.584Z" transform="translate(-2.413 -2.04)"/><path class="f" d="M30.853,51.706A20.853,20.853,0,1,1,51.706,30.853,20.644,20.644,0,0,1,30.853,51.706Zm0-34.755a13.589,13.589,0,0,0-13.9,13.9,13.589,13.589,0,0,0,13.9,13.9,13.589,13.589,0,0,0,13.9-13.9,13.589,13.589,0,0,0-13.9-13.9Z" transform="translate(16.37 17.666)"/></g></g><path class="f" d="M23.562,0a22.858,22.858,0,0,0-12.6,3.732L25.894,18.66a4.9,4.9,0,0,1,.466,7,4.9,4.9,0,0,1-7-.466L3.969,10.263A22.952,22.952,0,0,0,0,23.558,23.651,23.651,0,0,0,23.562,47.116a25.424,25.424,0,0,0,6.064-.7L45.254,62.044A11.71,11.71,0,1,0,61.814,45.484L46.187,29.856a25.425,25.425,0,0,0,.7-6.064A23.325,23.325,0,0,0,23.562,0Zm18.66,23.558a17.751,17.751,0,0,1-.7,4.9l-.7,2.566,1.866,1.866L58.316,48.516a6.718,6.718,0,0,1,2.1,4.9,6.344,6.344,0,0,1-2.1,4.9,6.764,6.764,0,0,1-9.8,0L32.892,42.685l-1.866-1.866-2.566.7a17.75,17.75,0,0,1-4.9.7,19.29,19.29,0,0,1-13.3-5.365,17.8,17.8,0,0,1-5.6-13.3,19.43,19.43,0,0,1,.7-5.131L15.631,28.69a9.656,9.656,0,0,0,13.762.466,9.656,9.656,0,0,0-.466-13.762L18.663,5.132a15.044,15.044,0,0,1,4.665-.7A19.29,19.29,0,0,1,36.623,9.8a19.8,19.8,0,0,1,5.6,13.762Z" transform="translate(28.666 124.026) rotate(-3)"/></g></g><g transform="translate(15 58)"><g transform="translate(60.248 -41)"><g class="g"><g transform="translate(-49.688 55.812)"><path class="b" d="M44.71,27.363V24.731l3.3-2.89a3.441,3.441,0,0,0,.654-4.387l-4.06-6.881A3.472,3.472,0,0,0,40.53,9.025l-4.18,1.411A19.526,19.526,0,0,0,34.1,9.145L33.219,4.81a3.441,3.441,0,0,0-3.441-2.77H21.727a3.441,3.441,0,0,0-3.441,2.77l-.877,4.335a19.749,19.749,0,0,0-2.271,1.29L11.044,8.956a3.441,3.441,0,0,0-1.1-.1,3.441,3.441,0,0,0-2.976,1.72l-4.06,6.881a3.441,3.441,0,0,0,.705,4.318l3.251,2.976V27.38L3.612,30.27a3.441,3.441,0,0,0-.705,4.387l4.06,6.881a3.472,3.472,0,0,0,4.077,1.548l4.18-1.411a19.526,19.526,0,0,0,2.254,1.29l.877,4.335a3.441,3.441,0,0,0,3.441,2.77h8.12a3.441,3.441,0,0,0,3.441-2.77l.877-4.335a19.749,19.749,0,0,0,2.271-1.29l4.163,1.411a3.472,3.472,0,0,0,4.077-1.548l3.922-6.881a3.441,3.441,0,0,0-.705-4.318ZM41.631,39.818l-5.9-2a15.242,15.242,0,0,1-4.662,2.7L29.847,46.7h-8.12l-1.221-6.107a16.1,16.1,0,0,1-4.645-2.7L9.943,39.818l-4.06-6.881,4.679-4.129a15.311,15.311,0,0,1,0-5.385L5.883,19.174l4.06-6.881,5.9,2a15.242,15.242,0,0,1,4.662-2.7l1.221-6.176h8.12l1.221,6.107a16.1,16.1,0,0,1,4.645,2.7l5.918-1.927,4.06,6.881L41.012,23.3a15.31,15.31,0,0,1,0,5.385l4.679,4.249Z" transform="translate(-2.413 -2.04)"/><path class="b" d="M20.322,30.644A10.322,10.322,0,1,1,30.644,20.322,10.219,10.219,0,0,1,20.322,30.644Zm0-17.2a6.726,6.726,0,0,0-6.881,6.881A6.726,6.726,0,0,0,20.322,27.2,6.726,6.726,0,0,0,27.2,20.322a6.726,6.726,0,0,0-6.881-6.881Z" transform="translate(3.052 3.694)"/></g></g><path class="b" d="M13.661,2A11.314,11.314,0,0,0,7.427,3.847l7.389,7.389a2.425,2.425,0,0,1,.231,3.464,2.425,2.425,0,0,1-3.464-.231L3.963,7.08A11.361,11.361,0,0,0,2,13.661,11.707,11.707,0,0,0,13.661,25.322a12.584,12.584,0,0,0,3-.346L24.4,32.711a5.8,5.8,0,1,0,8.2-8.2L24.86,16.778a12.585,12.585,0,0,0,.346-3A11.545,11.545,0,0,0,13.661,2ZM22.9,13.661a8.786,8.786,0,0,1-.346,2.425l-.346,1.27.924.924,7.735,7.735A3.325,3.325,0,0,1,31.9,28.439a3.14,3.14,0,0,1-1.039,2.425,3.348,3.348,0,0,1-4.849,0l-7.735-7.735-.924-.924-1.27.346a8.786,8.786,0,0,1-2.425.346A9.548,9.548,0,0,1,7.08,20.242a8.809,8.809,0,0,1-2.771-6.581,9.617,9.617,0,0,1,.346-2.54l5.08,5.08a4.78,4.78,0,0,0,6.812.231,4.78,4.78,0,0,0-.231-6.812l-5.08-5.08a7.447,7.447,0,0,1,2.309-.346,9.548,9.548,0,0,1,6.581,2.655A9.8,9.8,0,0,1,22.9,13.661Z" transform="translate(-19.176 80.975) rotate(-3)"/></g></g></g></svg>