<svg xmlns="http://www.w3.org/2000/svg" width="26" height="25" viewBox="0 0 26 25"><defs><style>.a{fill:#ada8a8;}</style></defs><g transform="translate(-3 -3)"><path class="a" d="M28.447,16.105,23,13.382V7a1,1,0,0,0-.553-.895l-6-3a1,1,0,0,0-.895,0l-6,3A1,1,0,0,0,9,7v6.382L3.553,16.105A1,1,0,0,0,3,17v7a1,1,0,0,0,.553.895l6,3a1,1,0,0,0,.895,0L16,25.118l5.553,2.776a1,1,0,0,0,.895,0l6-3A1,1,0,0,0,29,24V17a1,1,0,0,0-.553-.895ZM21,13.382l-4,2V10.618l4-2ZM16,5.118,19.764,7,16,8.882,12.236,7Zm-5,3.5,4,2v4.764l-4-2ZM9,25.382l-4-2V18.618l4,2Zm1-6.5L6.236,17,10,15.118,13.764,17Zm1,1.736,4-2v4.764l-4,2Zm10,4.764-4-2V18.618l4,2Zm1-6.5L18.236,17,22,15.118,25.764,17Zm5,4.5-4,2V20.618l4-2Z"/></g></svg>