<svg xmlns="http://www.w3.org/2000/svg" width="21" height="21" viewBox="0 0 21 21"><defs><style>.a{fill:#ada8a8;}.b{fill:none;}</style></defs><path class="a" d="M13.218,2A5.312,5.312,0,0,0,8.133,8.855L2,14.988V18.53H5.542L11.676,12.4A5.313,5.313,0,1,0,13.218,2Zm0,9.446a4.141,4.141,0,0,1-1.2-.178l-.677-.205-.5.5L8.963,13.44l-.814-.814-.835.835.814.814-.936.936L6.377,14.4l-.835.835.814.814-1.3,1.3H3.181V15.477L8.968,9.69l.5-.5-.205-.677a4.133,4.133,0,1,1,3.954,2.933Z" transform="translate(0 0)"/><circle class="a" cx="2" cy="2" r="2" transform="translate(12 5)"/><rect class="b" width="21" height="21"/></svg>