<svg xmlns="http://www.w3.org/2000/svg" width="74" height="74" viewBox="0 0 74 74"><defs><style>.a{opacity:0.4;}.b{fill:#fff;}.c{fill:none;}</style></defs><g class="a"><path class="b" d="M19.781,17.938h8.094V13.313H23.25V11H18.625v2.43a5.781,5.781,0,0,0,1.156,11.445h2.313a1.156,1.156,0,0,1,0,2.313H14v4.625h4.625v2.313H23.25V31.7A5.781,5.781,0,0,0,22.094,20.25H19.781a1.156,1.156,0,0,1,0-2.312Z" transform="translate(18.375 14.438)"/><path class="b" d="M64.438,24.813H59.766a13.364,13.364,0,0,0-4.579-9.591V6.313a2.313,2.313,0,0,0-3.7-1.85l-8.634,6.475H32.063c-12.741,0-21.884,7.5-23.006,18.5H8.938a2.315,2.315,0,0,1-2.312-2.312V22.5H2v4.625a6.945,6.945,0,0,0,6.938,6.938H9.1a21.213,21.213,0,0,0,9.088,15.162v7.963A2.313,2.313,0,0,0,20.5,59.5h9.25a2.312,2.312,0,0,0,2.313-2.312V52.563H39v4.625A2.313,2.313,0,0,0,41.313,59.5h9.25a2.313,2.313,0,0,0,2.313-2.312V49.411A11.777,11.777,0,0,0,59.393,41h5.044a2.312,2.312,0,0,0,2.313-2.312V27.125A2.312,2.312,0,0,0,64.438,24.813ZM62.125,36.375H55.474c-.706,6.366-1.9,8.06-7.224,9.979v8.521H43.625V47.938H27.438v6.938H22.813V46.5a16.218,16.218,0,0,1-9.25-14.749c0-11.182,9.292-16.187,18.5-16.187H44.4l6.166-4.625v6.42c5.592,4.3,4.423,7.368,4.667,12.08h6.9Z" transform="translate(2.625 5.25)"/><rect class="c" width="74" height="74"/></g></svg>
