<svg xmlns="http://www.w3.org/2000/svg" width="67.881" height="60.043" viewBox="0 0 67.881 60.043"><defs><style>.a{opacity:0.4;}.b{fill:#fff;}.c{fill:#121212;}</style></defs><g class="a" transform="translate(49.689 -55.812)"><g transform="translate(-49.688 55.812)"><path class="b" d="M44.71,27.363V24.731l3.3-2.89a3.441,3.441,0,0,0,.654-4.387l-4.06-6.881A3.472,3.472,0,0,0,40.53,9.025l-4.18,1.411A19.526,19.526,0,0,0,34.1,9.145L33.219,4.81a3.441,3.441,0,0,0-3.441-2.77H21.727a3.441,3.441,0,0,0-3.441,2.77l-.877,4.335a19.749,19.749,0,0,0-2.271,1.29L11.044,8.956a3.441,3.441,0,0,0-1.1-.1,3.441,3.441,0,0,0-2.976,1.72l-4.06,6.881a3.441,3.441,0,0,0,.705,4.318l3.251,2.976V27.38L3.612,30.27a3.441,3.441,0,0,0-.705,4.387l4.06,6.881a3.472,3.472,0,0,0,4.077,1.548l4.18-1.411a19.526,19.526,0,0,0,2.254,1.29l.877,4.335a3.441,3.441,0,0,0,3.441,2.77h8.12a3.441,3.441,0,0,0,3.441-2.77l.877-4.335a19.749,19.749,0,0,0,2.271-1.29l4.163,1.411a3.472,3.472,0,0,0,4.077-1.548l3.922-6.881a3.441,3.441,0,0,0-.705-4.318ZM41.631,39.818l-5.9-2a15.242,15.242,0,0,1-4.662,2.7L29.847,46.7h-8.12l-1.221-6.107a16.1,16.1,0,0,1-4.645-2.7L9.943,39.818l-4.06-6.881,4.679-4.129a15.311,15.311,0,0,1,0-5.385L5.883,19.174l4.06-6.881,5.9,2a15.242,15.242,0,0,1,4.662-2.7l1.221-6.176h8.12l1.221,6.107a16.1,16.1,0,0,1,4.645,2.7l5.918-1.927,4.06,6.881L41.012,23.3a15.31,15.31,0,0,1,0,5.385l4.679,4.249Z" transform="translate(-2.413 -2.04)"/><path class="b" d="M20.322,30.644A10.322,10.322,0,1,1,30.644,20.322,10.219,10.219,0,0,1,20.322,30.644Zm0-17.2a6.726,6.726,0,0,0-6.881,6.881A6.726,6.726,0,0,0,20.322,27.2,6.726,6.726,0,0,0,27.2,20.322a6.726,6.726,0,0,0-6.881-6.881Z" transform="translate(3.052 3.694)"/></g><circle class="c" cx="16.5" cy="16.5" r="16.5" transform="translate(-23.688 77)"/><g transform="translate(-17.75 78.94)"><path class="b" d="M34.921,21.5V19.479l2.539-2.221a2.644,2.644,0,0,0,.5-3.372L34.842,8.6a2.668,2.668,0,0,0-3.134-1.19L28.5,8.492A15.007,15.007,0,0,0,26.763,7.5l-.674-3.332A2.644,2.644,0,0,0,23.445,2.04H17.257a2.644,2.644,0,0,0-2.644,2.129L13.938,7.5a15.178,15.178,0,0,0-1.745.992L9.046,7.355A2.644,2.644,0,0,0,8.2,7.276,2.644,2.644,0,0,0,5.913,8.6l-3.12,5.289a2.644,2.644,0,0,0,.542,3.319l2.5,2.287v2.023l-2.5,2.221a2.644,2.644,0,0,0-.542,3.372L5.913,32.4a2.668,2.668,0,0,0,3.134,1.19L12.259,32.5a15.007,15.007,0,0,0,1.732.992l.674,3.332a2.644,2.644,0,0,0,2.644,2.129h6.241a2.644,2.644,0,0,0,2.644-2.129l.674-3.332a15.178,15.178,0,0,0,1.745-.992l3.2,1.084a2.668,2.668,0,0,0,3.134-1.19l3.015-5.289a2.644,2.644,0,0,0-.542-3.319Zm-2.367,9.572-4.535-1.534a11.715,11.715,0,0,1-3.583,2.076L23.5,36.363H17.257l-.939-4.694a12.376,12.376,0,0,1-3.57-2.076L8.2,31.075,5.08,25.786l3.6-3.173a11.767,11.767,0,0,1,0-4.138l-3.6-3.266L8.2,9.92l4.535,1.534a11.714,11.714,0,0,1,3.583-2.076l.939-4.747H23.5l.939,4.694a12.375,12.375,0,0,1,3.57,2.076L32.554,9.92l3.12,5.289-3.6,3.173a11.767,11.767,0,0,1,0,4.138l3.6,3.266Z" transform="translate(-2.413 -2.04)"/><path class="b" d="M17.933,25.866a7.933,7.933,0,1,1,7.933-7.933,7.854,7.854,0,0,1-7.933,7.933Zm0-13.222a5.17,5.17,0,0,0-5.289,5.289,5.17,5.17,0,0,0,5.289,5.289,5.17,5.17,0,0,0,5.289-5.289,5.17,5.17,0,0,0-5.289-5.289Z" transform="translate(0.031 0.525)"/></g></g></svg>