<svg xmlns="http://www.w3.org/2000/svg" width="11.807" height="16.53" viewBox="0 0 11.807 16.53"><defs><style>.a{fill:#c6c6c6;}</style></defs><g transform="translate(-442 -2)"><path class="a" d="M9.133,3.181A2.952,2.952,0,1,1,6.181,6.133,2.952,2.952,0,0,1,9.133,3.181M9.133,2a4.133,4.133,0,1,0,4.133,4.133A4.133,4.133,0,0,0,9.133,2Z" transform="translate(438.771)"/><path class="a" d="M13.807,25.084H12.627V22.133a2.952,2.952,0,0,0-2.952-2.952H6.133a2.952,2.952,0,0,0-2.952,2.952v2.952H2V22.133A4.133,4.133,0,0,1,6.133,18H9.675a4.133,4.133,0,0,1,4.133,4.133Z" transform="translate(440 -6.554)"/></g></svg>