<svg xmlns="http://www.w3.org/2000/svg" width="24" height="24" id="dashboard1" viewBox="0 0 24 24"><defs><style>.a{fill:#c6c6c6;}</style></defs><g transform="translate(-4 -4)"><path class="a" d="M26,6v4H6V6H26m0-2H6A2,2,0,0,0,4,6v4a2,2,0,0,0,2,2H26a2,2,0,0,0,2-2V6A2,2,0,0,0,26,4Z"/><path class="a" d="M10,16V26H6V16h4m0-2H6a2,2,0,0,0-2,2V26a2,2,0,0,0,2,2h4a2,2,0,0,0,2-2V16A2,2,0,0,0,10,14Z"/><path class="a" d="M26,16V26H16V16H26m0-2H16a2,2,0,0,0-2,2V26a2,2,0,0,0,2,2H26a2,2,0,0,0,2-2V16A2,2,0,0,0,26,14Z"/></g></svg>